<?xml version="1.0" encoding="utf-8" ?>
<svg xmlns="http://www.w3.org/2000/svg" xmlns:xlink="http://www.w3.org/1999/xlink" width="2862" height="1551">
	<path fill="#89612E" transform="matrix(1.04835 0 0 1.04797 0 -6.10352e-05)" d="M271.624 323.368C274.92 324.518 278.929 325.606 281.886 327.452C292.778 334.254 300.773 350.617 306.292 362.007C312.051 373.891 314.851 385.803 319.055 398.151C319.874 400.554 320.152 402.796 320.303 405.319C320.01 418.047 318.458 449.357 320.845 459.922C320.171 463.14 319.911 466.406 317.556 468.856C315.584 474.43 315.053 479.005 315.303 484.924C318.15 487.721 320.369 490.673 324.657 490.586C331.088 490.456 338.166 486.097 344.909 485.142C352.303 488.813 358.924 492.557 364.902 498.352C367.037 500.422 368.724 502.789 371.058 504.666C373.602 507.449 375.002 510.89 378.01 513.163L378.873 514.283C379.657 515.287 380.437 516.048 381.378 516.895C389.826 524.501 410.465 557.835 410.767 569.469C410.776 569.839 410.766 570.21 410.777 570.581C410.902 574.611 411.051 576.331 413.634 579.352C417.832 584.261 419.965 611.168 425.317 621.399C426.36 623.377 427.281 625.417 428.075 627.507C428.77 629.304 429.832 629.707 430.838 631.17C431.017 631.431 431.039 631.769 431.14 632.069C431.741 633.919 432.445 635.763 433.896 637.125C440.42 643.246 450.151 647.492 457.576 652.653C469.499 660.941 506.765 691.401 513.625 703.173C514.291 704.315 515.125 704.697 516.27 705.272C522.775 717.881 534.361 728.989 542.288 741.005C556.007 761.8 566.728 785.648 577.526 808.098C579.644 812.5 581.093 817.767 583.331 821.933C584.23 823.606 585.869 824.428 586.563 826.168C586.22 831.491 589.646 837.863 593.143 841.77C594.976 843.816 596.57 844.724 599.113 845.634C600.463 846.117 601.805 846.594 603.171 847.028C607.682 843.755 609.917 841.398 612.711 836.483C614.676 833.027 616.462 831.493 619.689 829.376C643.049 826.274 658.302 835.627 677.209 848.137C674.586 848.094 672.479 847.704 670.104 848.944C671.501 851.933 681.662 857.875 684.746 859.24C685.544 859.593 685.738 859.595 686.489 859.737L686.474 860.765C699.075 866.843 709.507 876.466 720.704 884.714C728.998 890.823 737.924 896.341 745.704 903.083C753.303 910.693 762.575 916.106 770.889 922.852C787.105 936.011 806.606 955.525 818.484 972.476C822.321 977.952 825.768 983.768 831.072 987.975C836.592 992.352 843.011 992.567 849.684 993.297C860.401 1008.37 862.448 1025.67 871.336 1041.22C881.797 1069.1 891.747 1096.93 899.906 1125.58C906.504 1148.75 910.785 1173.1 920.274 1195.3C922.145 1199.87 923.792 1205 926.183 1209.29C931.685 1224.72 942.884 1239.35 951.81 1253.03C954.46 1257.09 958.237 1261.68 960.04 1266.09C968.175 1273.43 972.718 1280.16 976.098 1290.63C978.395 1292.54 982.389 1295.22 982.766 1298.37C982.797 1298.63 982.764 1298.89 982.763 1299.15C980.019 1296.23 976.652 1293.69 973.401 1291.37C963.594 1284.36 948.887 1277.68 936.683 1279.86C931.466 1281 926.113 1281.55 920.82 1282.23C889.562 1279.71 855.372 1273.74 826.636 1260.75C819.254 1259.86 810.14 1254.86 803.393 1251.7C786.077 1243.59 767.239 1234.53 751.786 1223.23C744.512 1217.91 737.921 1211.55 730.947 1205.83C722.138 1198.61 713.299 1191.57 705.406 1183.32C701.147 1181.35 692.009 1166.5 688.342 1162.07C686.156 1159.43 683.112 1158.05 681.028 1155.37C676.087 1153.06 670.719 1151.87 665.279 1152.38C657.323 1153.12 649.357 1154.58 641.345 1154.27C627.964 1153.76 603.185 1146.64 589.577 1142.87C562.339 1135.33 532.901 1119.92 510.412 1102.91C502.812 1097.17 496 1090.39 488.583 1084.41C482.967 1079.88 476.261 1076.63 470.988 1071.7C464.483 1065.62 426.059 1016.19 420.784 1006.88C416.179 1002.68 413.267 997.883 408.021 994.116C403.732 992.935 399.51 989.241 396.006 986.589C389.756 983.187 383.857 979.507 377.933 975.581C329.278 946.402 286.426 902.579 259.759 852.35C255.845 844.978 253.232 837.1 249.724 829.559C247.243 824.223 244.104 819.13 241.833 813.707C231.213 788.342 230.634 754.555 207.729 736.967C202.676 730.737 175.207 715.454 166.852 709.536C153.299 699.936 140.482 687.717 129.559 675.213C118.008 661.988 108.617 646.78 100.129 631.458C73.1904 582.83 76.7623 564.621 80.3226 511.049C85.7884 504.9 88.0851 493.884 91.8342 486.301C102.728 464.269 118.991 445.016 137.294 428.81C139.218 425.99 167.628 405.071 172.693 401.04C184.304 392.529 194.694 382.38 205.535 372.929C214.261 365.323 223.543 358.322 232.07 350.496C239.758 343.44 247.315 334.334 255.756 328.349C257.833 326.876 259.888 326.419 262.315 325.837C265.434 325.077 268.538 324.254 271.624 323.368ZM277.592 539.062C273.638 549.854 263.322 569.131 255.782 578.075C228.777 624.239 220.704 644.185 212.275 697.414C210.649 707.681 207.658 720.493 210.062 730.786C210.589 733.044 211.631 734.437 213.136 736.151C216.054 737.82 218 739.088 219.844 741.942L218.712 734.706L213.673 726.347C218.264 701.99 218.966 676.932 224.873 652.829C236.147 606.83 269.416 563.891 290.986 521.735C291.43 513.379 294.951 505.614 297.555 497.736C296.854 498.074 294.607 498.859 294.186 499.358C291.035 503.092 284.047 524.91 280.991 531.315L277.592 539.062Z"/>
	<path fill="#5C3C22" transform="matrix(1.04835 0 0 1.04797 0 -6.10352e-05)" d="M271.624 323.368C274.92 324.518 278.929 325.606 281.886 327.452C292.778 334.254 300.773 350.617 306.292 362.007C312.051 373.891 314.851 385.803 319.055 398.151C319.874 400.554 320.152 402.796 320.303 405.319C320.01 418.047 318.458 449.357 320.845 459.922C320.171 463.14 319.911 466.406 317.556 468.856C315.584 474.43 315.053 479.005 315.303 484.924C318.15 487.721 320.369 490.673 324.657 490.586C331.088 490.456 338.166 486.097 344.909 485.142C352.303 488.813 358.924 492.557 364.902 498.352C367.037 500.422 368.724 502.789 371.058 504.666C373.602 507.449 375.002 510.89 378.01 513.163L378.873 514.283C379.657 515.287 380.437 516.048 381.378 516.895C389.826 524.501 410.465 557.835 410.767 569.469C410.776 569.839 410.766 570.21 410.777 570.581C410.902 574.611 411.051 576.331 413.634 579.352C417.832 584.261 419.965 611.168 425.317 621.399C426.36 623.377 427.281 625.417 428.075 627.507C428.77 629.304 429.832 629.707 430.838 631.17C431.017 631.431 431.039 631.769 431.14 632.069C431.741 633.919 432.445 635.763 433.896 637.125C440.42 643.246 450.151 647.492 457.576 652.653C469.499 660.941 506.765 691.401 513.625 703.173C514.291 704.315 515.125 704.697 516.27 705.272C522.775 717.881 534.361 728.989 542.288 741.005C556.007 761.8 566.728 785.648 577.526 808.098C579.644 812.5 581.093 817.767 583.331 821.933C584.23 823.606 585.869 824.428 586.563 826.168C575.934 829.788 584.07 836.088 580.043 842.849L577.778 843.251C562.878 835.908 538.056 801.611 524.824 788.188C507.018 770.125 488.103 752.956 470.034 735.094C462.981 728.122 447.03 710.648 436.762 711.218C433.253 711.412 430.827 714.716 428.555 717.078C420.402 739.451 401.72 779.715 404.227 802.682C397.657 846.679 390.419 893.7 398.926 937.955C401.352 950.575 405.706 962.703 409.143 975.054C410.304 979.229 411.564 983.28 408.532 986.835C405.825 987.107 405.123 986.614 402.699 985.526L402.052 986.907L396.006 986.589C389.756 983.187 383.857 979.507 377.933 975.581C329.278 946.402 286.426 902.579 259.759 852.35C255.845 844.978 253.232 837.1 249.724 829.559C247.243 824.223 244.104 819.13 241.833 813.707C231.213 788.342 230.634 754.555 207.729 736.967C202.676 730.737 175.207 715.454 166.852 709.536C153.299 699.936 140.482 687.717 129.559 675.213C118.008 661.988 108.617 646.78 100.129 631.458C73.1904 582.83 76.7623 564.621 80.3226 511.049C85.7884 504.9 88.0851 493.884 91.8342 486.301C102.728 464.269 118.991 445.016 137.294 428.81C139.218 425.99 167.628 405.071 172.693 401.04C184.304 392.529 194.694 382.38 205.535 372.929C214.261 365.323 223.543 358.322 232.07 350.496C239.758 343.44 247.315 334.334 255.756 328.349C257.833 326.876 259.888 326.419 262.315 325.837C265.434 325.077 268.538 324.254 271.624 323.368ZM277.592 539.062C273.638 549.854 263.322 569.131 255.782 578.075C228.777 624.239 220.704 644.185 212.275 697.414C210.649 707.681 207.658 720.493 210.062 730.786C210.589 733.044 211.631 734.437 213.136 736.151C216.054 737.82 218 739.088 219.844 741.942L218.712 734.706L213.673 726.347C218.264 701.99 218.966 676.932 224.873 652.829C236.147 606.83 269.416 563.891 290.986 521.735C291.43 513.379 294.951 505.614 297.555 497.736C296.854 498.074 294.607 498.859 294.186 499.358C291.035 503.092 284.047 524.91 280.991 531.315L277.592 539.062Z"/>
	<path fill="#744F28" fill-opacity="0.98431373" transform="matrix(1.04835 0 0 1.04797 0 -6.10352e-05)" d="M280.991 531.315C284.047 524.91 291.035 503.092 294.186 499.358C294.607 498.859 296.854 498.074 297.555 497.736C294.951 505.614 291.43 513.379 290.986 521.735C269.416 563.891 236.147 606.83 224.873 652.829C218.966 676.932 218.264 701.99 213.673 726.347L218.712 734.706L219.844 741.942C218 739.088 216.054 737.82 213.136 736.151C211.631 734.437 210.589 733.044 210.062 730.786C207.658 720.493 210.649 707.681 212.275 697.414C220.704 644.185 228.777 624.239 255.782 578.075C263.322 569.131 273.638 549.854 277.592 539.062L280.991 531.315Z"/>
	<defs>
		<linearGradient id="gradient_0" gradientUnits="userSpaceOnUse" x1="364.03549" y1="424.83792" x2="100.79074" y2="640.94659">
			<stop offset="0" stop-color="#563620"/>
			<stop offset="1" stop-color="#EEBB4F"/>
		</linearGradient>
	</defs>
	<path fill="url(#gradient_0)" transform="matrix(1.04835 0 0 1.04797 0 -6.10352e-05)" d="M271.624 323.368C274.92 324.518 278.929 325.606 281.886 327.452C292.778 334.254 300.773 350.617 306.292 362.007C312.051 373.891 314.851 385.803 319.055 398.151C319.874 400.554 320.152 402.796 320.303 405.319C320.01 418.047 318.458 449.357 320.845 459.922C320.171 463.14 319.911 466.406 317.556 468.856C315.491 470.149 313.027 471.012 312.32 473.55C311.507 476.471 312.438 477.575 310.556 480.533L309.399 481.173C300.651 486.091 303.15 492.501 297.555 497.736C296.854 498.074 294.607 498.859 294.186 499.358C291.035 503.092 284.047 524.91 280.991 531.315L277.592 539.062C273.638 549.854 263.322 569.131 255.782 578.075C228.777 624.239 220.704 644.185 212.275 697.414C210.649 707.681 207.658 720.493 210.062 730.786C210.589 733.044 211.631 734.437 213.136 736.151L207.729 736.967C202.676 730.737 175.207 715.454 166.852 709.536C153.299 699.936 140.482 687.717 129.559 675.213C118.008 661.988 108.617 646.78 100.129 631.458C73.1904 582.83 76.7623 564.621 80.3226 511.049C85.7884 504.9 88.0851 493.884 91.8342 486.301C102.728 464.269 118.991 445.016 137.294 428.81C139.218 425.99 167.628 405.071 172.693 401.04C184.304 392.529 194.694 382.38 205.535 372.929C214.261 365.323 223.543 358.322 232.07 350.496C239.758 343.44 247.315 334.334 255.756 328.349C257.833 326.876 259.888 326.419 262.315 325.837C265.434 325.077 268.538 324.254 271.624 323.368Z"/>
	<path fill="#A97E38" transform="matrix(1.04835 0 0 1.04797 0 -6.10352e-05)" d="M277.592 539.062C276.747 539.211 276.315 539.014 275.507 538.777C275.035 535.628 273.932 533.158 272.042 530.583C270.633 528.663 269.269 526.884 266.897 526.567C265.706 528.199 264.926 530.011 264.074 531.833L262.199 532.055C260.275 530.677 259.062 529.902 258.259 527.55C258.791 527.032 260.832 524.978 260.724 524.222C260.015 519.26 253.541 514.874 254.463 509.097C259.062 507.262 267.6 511.839 272.108 513.675C275.741 516.084 279.455 518.184 280.581 522.732C281.245 525.415 281.024 528.56 280.991 531.315L277.592 539.062Z"/>
	<defs>
		<linearGradient id="gradient_1" gradientUnits="userSpaceOnUse" x1="399.1192" y1="704.79797" x2="259.1348" y2="877.65356">
			<stop offset="0" stop-color="#9F7837"/>
			<stop offset="1" stop-color="#E1AE4A"/>
		</linearGradient>
	</defs>
	<path fill="url(#gradient_1)" transform="matrix(1.04835 0 0 1.04797 0 -6.10352e-05)" d="M257.416 627.989C257.596 627.771 257.778 627.554 257.955 627.333C263.075 620.949 267.775 608.728 275.455 605.67C281.734 606.652 289.262 614 292.958 618.986C296.506 623.773 299.143 629.203 302.709 633.977C306.442 638.973 310.975 643.339 314.923 648.165C321.075 655.685 326.78 663.782 332.38 671.722C340.267 682.905 346.858 695.244 355.653 705.726C360.627 711.654 365.821 716.791 372.53 720.736L374.737 730.89C379.439 735.344 383.691 740.042 387.934 744.921L387.063 757.773C384.503 777.374 380.393 802.827 381.961 822.398C378.984 858.275 374.938 953.33 398.176 980.961C399.552 982.597 401.133 984.075 402.699 985.526L402.052 986.907L396.006 986.589C389.756 983.187 383.857 979.507 377.933 975.581C329.278 946.402 286.426 902.579 259.759 852.35C255.845 844.978 253.232 837.1 249.724 829.559C247.243 824.223 244.104 819.13 241.833 813.707C231.213 788.342 230.634 754.555 207.729 736.967L213.136 736.151C216.054 737.82 218 739.088 219.844 741.942C221.803 745.084 223.56 748.618 226.569 750.855C229.427 748.822 229.86 745.647 230.372 742.296C231.706 733.576 230.812 724.492 231.659 715.686C234.327 687.945 241.195 651.295 257.416 627.989Z"/>
	<path fill="#A97E38" transform="matrix(1.04835 0 0 1.04797 0 -6.10352e-05)" d="M377.933 975.581C382.086 975.43 386.148 976.585 390.17 977.498L390.223 977.116C385.663 967.505 383.69 954.849 381.75 944.403C372.718 895.774 372.714 855.898 377.039 807.23C378.051 795.843 378.578 783.917 381.535 772.862L380.584 781.401C382.949 774.083 382.645 764.029 387.063 757.773C384.503 777.374 380.393 802.827 381.961 822.398C378.984 858.275 374.938 953.33 398.176 980.961C399.552 982.597 401.133 984.075 402.699 985.526L402.052 986.907L396.006 986.589C389.756 983.187 383.857 979.507 377.933 975.581Z"/>
	<path fill="#89612E" transform="matrix(1.04835 0 0 1.04797 0 -6.10352e-05)" d="M293.896 572.219C300.674 578.893 310.386 586.608 315.352 594.681C320.101 602.4 318.257 622.252 330.731 621.834C334.788 621.698 336.271 619.943 339.724 622.942C348.574 630.63 349.687 644.802 363.135 646.987C365.024 646.45 366.069 646.469 367.178 644.698C368.773 642.154 368.261 637.892 370.667 636.068C375.401 636.771 379.254 641.563 382.011 645.262C390.728 656.954 396.364 671.22 406.622 681.704C406.48 694.097 407.629 708.252 404.516 720.223C395.536 746.294 390.374 772.598 385.304 799.659C383.908 807.111 383.853 815.102 381.961 822.398C380.393 802.827 384.503 777.374 387.063 757.773L387.934 744.921C383.691 740.042 379.439 735.344 374.737 730.89L372.53 720.736C365.821 716.791 360.627 711.654 355.653 705.726C346.858 695.244 340.267 682.905 332.38 671.722C326.78 663.782 321.075 655.685 314.923 648.165C310.975 643.339 306.442 638.973 302.709 633.977C299.143 629.203 296.506 623.773 292.958 618.986C289.262 614 281.734 606.652 275.455 605.67C267.775 608.728 263.075 620.949 257.955 627.333C257.778 627.554 257.596 627.771 257.416 627.989C263.293 611.895 271.326 596.536 280.271 581.963C283.834 577.295 288.845 574.946 293.896 572.219Z"/>
	<path fill="#744F28" transform="matrix(1.04835 0 0 1.04797 0 -6.10352e-05)" d="M280.271 581.963C289.294 565.325 298.795 549.397 312.739 536.35C339.684 555.794 353.042 583.312 376.608 602.985C381.355 606.948 387.515 609.898 392.819 613.087C400.179 617.513 401.66 619.56 410.197 622.294L411.525 622.71C418.619 645.914 410.237 669.015 414.059 692.106C410.995 700.797 409.39 712.618 404.516 720.223C407.629 708.252 406.48 694.097 406.622 681.704C396.364 671.22 390.728 656.954 382.011 645.262C379.254 641.563 375.401 636.771 370.667 636.068C368.261 637.892 368.773 642.154 367.178 644.698C366.069 646.469 365.024 646.45 363.135 646.987C349.687 644.802 348.574 630.63 339.724 622.942C336.271 619.943 334.788 621.698 330.731 621.834C318.257 622.252 320.101 602.4 315.352 594.681C310.386 586.608 300.674 578.893 293.896 572.219C288.845 574.946 283.834 577.295 280.271 581.963Z"/>
	<path fill="#27231E" transform="matrix(1.04835 0 0 1.04797 0 -6.10352e-05)" d="M304.334 490.658C309.829 496.031 315.608 501.272 320.294 507.382C309.925 528.315 296.876 547.313 284.799 567.239C260.436 607.433 237.49 652.535 230.465 699.54C228.143 715.074 227.828 731.024 227.415 746.7C224.827 742.5 222.46 737.992 218.712 734.706L213.673 726.347C218.264 701.99 218.966 676.932 224.873 652.829C236.147 606.83 269.416 563.891 290.986 521.735C297.966 512.245 299.456 501.082 304.334 490.658Z"/>
	<path fill="#27231E" transform="matrix(1.04835 0 0 1.04797 0 -6.10352e-05)" d="M419.54 688.386C420.309 688.792 421.765 689.751 422.316 690.394C426.433 695.196 423.103 708.118 421.747 713.643C418.276 727.781 412.76 741.375 409.247 755.543C393.747 818.066 384.881 889.149 398.759 952.842C400.488 960.778 403.917 968.27 406.118 976.065C407.036 979.314 406.936 980.269 405.306 983.057C403.627 981.353 401.957 979.613 400.559 977.665C390.866 964.157 389.388 942.236 387.358 926.159C379.96 868.9 384.2 810.736 399.825 755.156C406.172 732.977 415.751 711.106 419.54 688.386Z"/>
	<path fill="#A97E38" transform="matrix(1.04835 0 0 1.04797 0 -6.10352e-05)" d="M404.227 802.682C404.411 802.414 404.602 802.151 404.779 801.879C413.334 788.726 412.752 736.964 431.477 733.315C436.045 732.424 440.699 735.154 444.203 737.831C455.46 746.431 462.543 759.284 473.242 768.183C481.228 774.827 491.928 777.956 499.536 784.957C516.642 800.7 528.974 821.184 545.151 837.769C555.267 848.14 576.332 862.464 584.685 872.943C590.577 880.335 593.797 890.537 597.455 899.182C613.961 938.185 623.376 967.243 628.462 1010.02C628.943 1014.25 629.336 1018.48 629.642 1022.73L635.793 1030.29C634.979 1049.25 642.064 1064.95 647.464 1082.65C649.725 1090.06 650.756 1097.77 652.854 1105.22C656.366 1117.69 664.072 1134.42 672.853 1143.91C674.642 1145.82 676.477 1147.69 678.356 1149.51C680.422 1151.26 681.705 1151.91 682.573 1154.51L681.028 1155.37C676.087 1153.06 670.719 1151.87 665.279 1152.38C657.323 1153.12 649.357 1154.58 641.345 1154.27C627.964 1153.76 603.185 1146.64 589.577 1142.87C562.339 1135.33 532.901 1119.92 510.412 1102.91C502.812 1097.17 496 1090.39 488.583 1084.41C482.967 1079.88 476.261 1076.63 470.988 1071.7C464.483 1065.62 426.059 1016.19 420.784 1006.88C416.179 1002.68 413.267 997.883 408.021 994.116C403.732 992.935 399.51 989.241 396.006 986.589L402.052 986.907L402.699 985.526C405.123 986.614 405.825 987.107 408.532 986.835C411.564 983.28 410.304 979.229 409.143 975.054C405.706 962.703 401.352 950.575 398.926 937.955C390.419 893.7 397.657 846.679 404.227 802.682Z"/>
	<path fill="#C79841" transform="matrix(1.04835 0 0 1.04797 0 -6.10352e-05)" d="M412.253 970.295C406.031 949.616 394.719 891.544 403.553 872.834C404.601 870.613 405.439 870.104 407.668 869.261C415.396 871.239 417.6 880.235 422.846 885.433C429.936 892.46 442.13 897.847 447.227 906.375C451.139 912.921 445.702 922.226 452.195 927.467C454.441 927.709 456.251 927.654 458.501 927.426C460.063 927.267 462.016 926.915 463.519 927.575C471.288 930.986 483.602 941.899 490.289 947.491C493.452 950.136 497.657 952.984 499.267 956.852L499.701 957.873C500.082 958.776 500.439 959.689 500.772 960.61C502.708 961.921 502.713 962.178 505.077 961.752C508.471 961.14 509.432 959.875 512.834 961.157C517.907 966.857 518.979 974.546 523.274 980.6C527.278 986.241 534.923 990.516 538.08 996.517C539.097 998.45 539.236 1001.14 539.44 1003.29C543.985 1009.16 551.17 1012.17 556.15 1017.57C563.215 1025.22 569.437 1033.7 576.501 1041.42C584.202 1049.83 592.934 1057.55 600.179 1066.33C604.833 1071.97 606.638 1079.4 611.656 1084.82C621.127 1095.05 633.73 1102.15 643.353 1112.21C653.922 1123.26 655.728 1137.87 668.805 1147.07L670.151 1147.13L678.356 1149.51C680.422 1151.26 681.705 1151.91 682.573 1154.51L681.028 1155.37C676.087 1153.06 670.719 1151.87 665.279 1152.38C657.323 1153.12 649.357 1154.58 641.345 1154.27C627.964 1153.76 603.185 1146.64 589.577 1142.87C562.339 1135.33 532.901 1119.92 510.412 1102.91C502.812 1097.17 496 1090.39 488.583 1084.41C482.967 1079.88 476.261 1076.63 470.988 1071.7C464.483 1065.62 426.059 1016.19 420.784 1006.88C417.784 1001.24 419.039 994.509 418.223 988.182C417.394 981.755 414.773 976.206 412.253 970.295Z"/>
	<path fill="#DDAB4A" transform="matrix(1.04835 0 0 1.04797 0 -6.10352e-05)" d="M408.232 928.036C422.875 946.541 430.403 967.138 443.804 985.254C449.843 993.417 458.441 998.759 465.013 1006.28C467.885 1009.56 467.281 1014.2 470.578 1017.07L472.137 1017.03C474.159 1013.56 473.425 1008.54 476.101 1006.01C478.91 1007.18 480.626 1010 481.75 1012.75C483.416 1016.83 482.561 1021.97 484.078 1025.81C484.886 1027.86 517.96 1053.08 524.081 1061.27C529.293 1068.25 528.543 1079.16 536.478 1084.16C543.107 1085.29 548.289 1079.42 553.941 1084.24C554.952 1087.21 554.546 1089.67 554.195 1092.72L555.045 1093.8C557.914 1092.55 559.445 1090.67 562.578 1091.4C565.87 1095.91 566.757 1097.62 572.296 1098.74C577.513 1099.8 584.466 1105.99 588.861 1109.07C603.646 1119.43 637.145 1144.63 652.82 1148.11C655.433 1148.69 657.457 1148.06 660.031 1147.57C662.987 1147.01 665.81 1146.92 668.805 1147.07L670.151 1147.13L678.356 1149.51C680.422 1151.26 681.705 1151.91 682.573 1154.51L681.028 1155.37C676.087 1153.06 670.719 1151.87 665.279 1152.38C657.323 1153.12 649.357 1154.58 641.345 1154.27C627.964 1153.76 603.185 1146.64 589.577 1142.87C562.339 1135.33 532.901 1119.92 510.412 1102.91C502.812 1097.17 496 1090.39 488.583 1084.41C482.967 1079.88 476.261 1076.63 470.988 1071.7C464.483 1065.62 426.059 1016.19 420.784 1006.88C417.784 1001.24 419.039 994.509 418.223 988.182C417.394 981.755 414.773 976.206 412.253 970.295C411.694 956.155 409.632 942.111 408.232 928.036Z"/>
	<path fill="#89612E" transform="matrix(1.04835 0 0 1.04797 0 -6.10352e-05)" d="M404.227 802.682C404.411 802.414 404.602 802.151 404.779 801.879C413.334 788.726 412.752 736.964 431.477 733.315C436.045 732.424 440.699 735.154 444.203 737.831C455.46 746.431 462.543 759.284 473.242 768.183C481.228 774.827 491.928 777.956 499.536 784.957C516.642 800.7 528.974 821.184 545.151 837.769C555.267 848.14 576.332 862.464 584.685 872.943C590.577 880.335 593.797 890.537 597.455 899.182C613.961 938.185 623.376 967.243 628.462 1010.02C628.943 1014.25 629.336 1018.48 629.642 1022.73L635.793 1030.29C634.979 1049.25 642.064 1064.95 647.464 1082.65C649.725 1090.06 650.756 1097.77 652.854 1105.22C656.366 1117.69 664.072 1134.42 672.853 1143.91C674.642 1145.82 676.477 1147.69 678.356 1149.51L670.151 1147.13C642.936 1120.39 622.933 1034.21 613.685 995.895C610.38 982.202 609.629 968.5 603.025 955.697C592.317 934.94 573.418 919.128 558.002 901.89C538.845 880.469 520.225 858.198 500.023 837.756C493.457 831.112 465.182 802.571 458.465 799.661C456.951 799.006 451.933 800.194 449.909 799.98C443.858 799.34 436.464 786.562 432.772 782.153C430.351 779.263 427.193 776.768 423.26 776.659C418.615 776.531 415.353 779.667 412.17 782.57C401.029 821.724 393.963 894.401 400.763 933.898C403.359 948.975 409.725 962.89 412.885 977.702C413.707 981.551 414.767 986.745 412.542 990.226C410.879 990.983 409.648 991.421 408.656 993.026C408.435 993.383 408.232 993.752 408.021 994.116C403.732 992.935 399.51 989.241 396.006 986.589L402.052 986.907L402.699 985.526C405.123 986.614 405.825 987.107 408.532 986.835C411.564 983.28 410.304 979.229 409.143 975.054C405.706 962.703 401.352 950.575 398.926 937.955C390.419 893.7 397.657 846.679 404.227 802.682Z"/>
	<path fill="#744F28" transform="matrix(1.04835 0 0 1.04797 0 -6.10352e-05)" d="M428.555 717.078C430.827 714.716 433.253 711.412 436.762 711.218C447.03 710.648 462.981 728.122 470.034 735.094C488.103 752.956 507.018 770.125 524.824 788.188C538.056 801.611 562.878 835.908 577.778 843.251L580.043 842.849C584.07 836.088 575.934 829.788 586.563 826.168C586.22 831.491 589.646 837.863 593.143 841.77C594.976 843.816 596.57 844.724 599.113 845.634C600.463 846.117 601.805 846.594 603.171 847.028C607.682 843.755 609.917 841.398 612.711 836.483C614.676 833.027 616.462 831.493 619.689 829.376C643.049 826.274 658.302 835.627 677.209 848.137C674.586 848.094 672.479 847.704 670.104 848.944C671.501 851.933 681.662 857.875 684.746 859.24C685.544 859.593 685.738 859.595 686.489 859.737L686.474 860.765C699.075 866.843 709.507 876.466 720.704 884.714C728.998 890.823 737.924 896.341 745.704 903.083C753.303 910.693 762.575 916.106 770.889 922.852C787.105 936.011 806.606 955.525 818.484 972.476C822.321 977.952 825.768 983.768 831.072 987.975C836.592 992.352 843.011 992.567 849.684 993.297C860.401 1008.37 862.448 1025.67 871.336 1041.22C881.797 1069.1 891.747 1096.93 899.906 1125.58C906.504 1148.75 910.785 1173.1 920.274 1195.3C922.145 1199.87 923.792 1205 926.183 1209.29C931.685 1224.72 942.884 1239.35 951.81 1253.03C954.46 1257.09 958.237 1261.68 960.04 1266.09C962.153 1269.27 964.181 1271.93 964.843 1275.77L964.053 1277.96C959.051 1280 950.759 1275.5 945.904 1273.53C931.589 1275.09 910.144 1235.59 904.128 1224.26C889.598 1196.9 880.021 1167.47 871.356 1137.78C866.711 1121.86 863.53 1104.18 855.76 1089.46C848.834 1076.34 835.519 1066.94 825.516 1056.27C803.155 1032.42 781.286 1008.3 758.255 985.064C745.735 972.435 732.373 960.72 719.807 948.179C711.981 940.367 704.725 931.996 696.775 924.305C686.674 914.533 675.851 905.39 665.546 895.813C654.32 885.38 642.874 873.471 629.666 865.564C626.026 863.385 623.159 861.981 618.9 863.017C617.978 864.014 617.517 864.704 617.219 866.063C615.95 871.842 616.803 878.78 617.493 884.59C618.689 894.664 634.396 988.532 635.784 990.705C636.866 1000.44 639.569 1010 642.222 1019.42C646.361 1042.31 651.511 1066.56 660.385 1088.13C666.654 1105.79 692.676 1143.4 692.779 1158.62C691.461 1159.24 690.634 1159.35 689.181 1159.35C691.744 1162.93 705.552 1180.16 705.406 1183.32C701.147 1181.35 692.009 1166.5 688.342 1162.07C686.156 1159.43 683.112 1158.05 681.028 1155.37L682.573 1154.51C681.705 1151.91 680.422 1151.26 678.356 1149.51C676.477 1147.69 674.642 1145.82 672.853 1143.91C664.072 1134.42 656.366 1117.69 652.854 1105.22C650.756 1097.77 649.725 1090.06 647.464 1082.65C642.064 1064.95 634.979 1049.25 635.793 1030.29L629.642 1022.73C629.336 1018.48 628.943 1014.25 628.462 1010.02C623.376 967.243 613.961 938.185 597.455 899.182C593.797 890.537 590.577 880.335 584.685 872.943C576.332 862.464 555.267 848.14 545.151 837.769C528.974 821.184 516.642 800.7 499.536 784.957C491.928 777.956 481.228 774.827 473.242 768.183C462.543 759.284 455.46 746.431 444.203 737.831C440.699 735.154 436.045 732.424 431.477 733.315C412.752 736.964 413.334 788.726 404.779 801.879C404.602 802.151 404.411 802.414 404.227 802.682C401.72 779.715 420.402 739.451 428.555 717.078Z"/>
	<path fill="#5C3C22" transform="matrix(1.04835 0 0 1.04797 0 -6.10352e-05)" d="M855.418 1069.18C851.158 1062.84 847.983 1055.5 843.8 1048.99C834.721 1034.85 823.618 1021.96 812.439 1009.46C796.539 991.824 780.043 974.731 762.978 958.216C744.008 940.005 673.976 882.94 668.495 862.882L669.812 860.831C675.597 858.128 680.044 861.525 685.548 860.893C685.858 860.858 686.165 860.808 686.474 860.765C699.075 866.843 709.507 876.466 720.704 884.714C728.998 890.823 737.924 896.341 745.704 903.083C753.303 910.693 762.575 916.106 770.889 922.852C787.105 936.011 806.606 955.525 818.484 972.476C822.321 977.952 825.768 983.768 831.072 987.975C836.592 992.352 843.011 992.567 849.684 993.297C860.401 1008.37 862.448 1025.67 871.336 1041.22C881.797 1069.1 891.747 1096.93 899.906 1125.58C906.504 1148.75 910.785 1173.1 920.274 1195.3C922.145 1199.87 923.792 1205 926.183 1209.29C931.685 1224.72 942.884 1239.35 951.81 1253.03C954.46 1257.09 958.237 1261.68 960.04 1266.09C962.153 1269.27 964.181 1271.93 964.843 1275.77L964.053 1277.96C959.051 1280 950.759 1275.5 945.904 1273.53C944.714 1273.05 943.622 1272.51 942.541 1271.81C915.333 1254.17 889.204 1187.91 880.112 1157.93C875.705 1143.39 873.029 1128.43 868.832 1113.85C864.475 1098.72 858.417 1084.75 855.418 1069.18Z"/>
	<path fill="#27231E" transform="matrix(1.04835 0 0 1.04797 0 -6.10352e-05)" d="M841.04 994.213C842.023 994.518 842.998 994.83 843.947 995.232C854.628 999.75 866.39 1037.32 870.285 1048.2C879.247 1073.24 888.5 1098.61 895.451 1124.28C902.435 1150.08 907.143 1177.06 917.291 1201.85C922.978 1215.74 930.305 1229.64 938.623 1242.14C945.61 1252.63 955.304 1263.61 960.083 1275.32C959.611 1275.25 959.137 1275.19 958.667 1275.11C944.956 1272.66 933.124 1260.86 925.383 1250.03C912.431 1231.91 902.708 1210.75 894.806 1190.01C879.572 1150.02 871.848 1108.15 860.252 1067.13C854.777 1047.77 845.93 1028.76 841.292 1009.34C840.004 1003.95 840.148 999.642 841.04 994.213Z"/>
	<path fill="#C79841" transform="matrix(1.04835 0 0 1.04797 0 -6.10352e-05)" d="M642.493 982.15C650.808 988.259 658.526 994.691 665.874 1001.94C680.923 1016.79 694.453 1033.51 708.799 1049.08C718.622 1059.74 757.578 1099.11 762.771 1108.73L762.482 1109.78C756.907 1106.28 752.202 1100.99 747.651 1096.26C754.9 1110.28 769.612 1119.75 779.271 1132.34C798.893 1157.93 821.487 1180.63 841.797 1205.57C850.099 1215.76 855.441 1228.37 864.833 1237.61C880.365 1252.9 901.112 1258.76 914.624 1277.02L926.773 1277.36L927.254 1278.45C925.058 1279.64 922.932 1280.89 920.82 1282.23C889.562 1279.71 855.372 1273.74 826.636 1260.75C819.254 1259.86 810.14 1254.86 803.393 1251.7C786.077 1243.59 767.239 1234.53 751.786 1223.23C744.512 1217.91 737.921 1211.55 730.947 1205.83C722.138 1198.61 713.299 1191.57 705.406 1183.32C705.552 1180.16 691.744 1162.93 689.181 1159.35C690.634 1159.35 691.461 1159.24 692.779 1158.62C692.676 1143.4 666.654 1105.79 660.385 1088.13C651.511 1066.56 646.361 1042.31 642.222 1019.42C641.21 1006.72 641.05 994.818 642.493 982.15Z"/>
	<path fill="#DDAB4A" transform="matrix(1.04835 0 0 1.04797 0 -6.10352e-05)" d="M660.235 1062.72C684.252 1084.9 694.383 1102.8 714.203 1127.06C740.097 1158.51 767.197 1188.95 795.442 1218.3C804.655 1227.85 815.416 1241.25 826.808 1248.06C831.018 1250.58 837.263 1251.63 838.325 1256.92C836.851 1258.77 835.77 1260.55 833.178 1260.88C831.026 1261.15 828.793 1260.64 826.636 1260.75C819.254 1259.86 810.14 1254.86 803.393 1251.7C786.077 1243.59 767.239 1234.53 751.786 1223.23C744.512 1217.91 737.921 1211.55 730.947 1205.83C722.138 1198.61 713.299 1191.57 705.406 1183.32C705.552 1180.16 691.744 1162.93 689.181 1159.35C690.634 1159.35 691.461 1159.24 692.779 1158.62C692.676 1143.4 666.654 1105.79 660.385 1088.13C660.086 1079.65 659.677 1071.2 660.235 1062.72Z"/>
	<path fill="#A97E38" transform="matrix(1.04835 0 0 1.04797 0 -6.10352e-05)" d="M635.784 990.705C635.811 990.238 635.844 989.771 635.866 989.304C636.458 976.861 630.5 960.325 636.041 948.63L637.752 947.292C645.904 949.697 659.438 951.956 665.564 957.747C678.893 970.348 690.127 984.783 702.802 997.984L805.836 1105.65C811.928 1112 819.583 1115.55 825.95 1121.4C837.465 1131.98 847.002 1144.97 857.542 1156.5C863.637 1163.17 871.44 1168.96 876.831 1176.15C885.732 1188 890.69 1204.39 897.263 1217.73C903.115 1229.6 910.883 1241 918.393 1251.88C922.488 1257.82 927.102 1264.94 932.562 1269.64C936.124 1272.7 941.347 1271.93 943.848 1276.07L943.11 1276.23C940.224 1276.88 938.446 1277.3 936.683 1279.86C931.466 1281 926.113 1281.55 920.82 1282.23C922.932 1280.89 925.058 1279.64 927.254 1278.45L926.773 1277.36L914.624 1277.02C901.112 1258.76 880.365 1252.9 864.833 1237.61C855.441 1228.37 850.099 1215.76 841.797 1205.57C821.487 1180.63 798.893 1157.93 779.271 1132.34C769.612 1119.75 754.9 1110.28 747.651 1096.26C752.202 1100.99 756.907 1106.28 762.482 1109.78L762.771 1108.73C757.578 1099.11 718.622 1059.74 708.799 1049.08C694.453 1033.51 680.923 1016.79 665.874 1001.94C658.526 994.691 650.808 988.259 642.493 982.15C641.05 994.818 641.21 1006.72 642.222 1019.42C639.569 1010 636.866 1000.44 635.784 990.705Z"/>
	<path fill="#89612E" transform="matrix(1.04835 0 0 1.04797 0 -6.10352e-05)" d="M686.474 860.765L686.489 859.737C685.738 859.595 685.544 859.593 684.746 859.24C681.662 857.875 671.501 851.933 670.104 848.944C672.479 847.704 674.586 848.094 677.209 848.137C704.96 860.93 769.965 912.449 793.053 934.093C800.682 941.244 808.028 949.647 814.469 957.883C820.861 966.056 826.594 975.77 834.742 982.272C838.095 984.948 842.759 986.979 846.757 988.53C853.979 984.839 861.636 980.579 869.466 978.423C894.959 971.403 926.744 979.664 951.343 987.634C1000.18 1003.46 1048.35 1035.5 1085.6 1070.49C1101.31 1085.24 1111.26 1109.8 1132.53 1117.34C1143.63 1117.39 1159.73 1104.94 1170.62 1100.03C1194.53 1089.27 1222.95 1080.15 1249.34 1081.04C1280.56 1080.21 1322.91 1095.81 1349.55 1111.67C1362.53 1119.4 1374.71 1129.26 1388.76 1134.97C1396.76 1138.21 1414.17 1143.99 1421.06 1136.23C1422.2 1134.95 1423 1133.42 1423.89 1131.97C1424.5 1130.98 1424.97 1130.47 1425.92 1129.81L1426.52 1135.56L1428.17 1136.39C1434.92 1141.67 1440.93 1147.63 1446.58 1154.06C1456.45 1165.29 1494.03 1213.23 1496.65 1226.06L1494.66 1225.83C1516.45 1254.51 1537.22 1284.74 1563.68 1309.39C1570.63 1315.86 1608.04 1344.17 1609.8 1349.53C1605.9 1353.76 1600.89 1355.86 1595.61 1357.88C1599.54 1358.03 1604.07 1357.35 1607.81 1357.76C1611.97 1357.67 1616.36 1357.15 1620.31 1358.6L1621.03 1360.04C1609.94 1358.54 1606.03 1363.11 1596.61 1366.89C1594.39 1371.63 1584.68 1375.61 1579.74 1377.42C1578.33 1377.93 1576.92 1378.42 1575.49 1378.89C1572.84 1381.94 1566.37 1383.08 1562.45 1384.28C1528.96 1394.52 1495.67 1396.56 1461.18 1400.67C1451.6 1401.82 1442.01 1403.76 1432.4 1404.59C1428.09 1404.96 1423.74 1404.63 1419.75 1402.86C1393.7 1396.88 1366.81 1394.67 1342.2 1383.56C1321.93 1373.66 1302 1365.58 1280.36 1359.21C1258.63 1357.68 1257.71 1363.44 1239.39 1366.96C1234.82 1367.84 1230.12 1367.07 1225.49 1367.71C1217.61 1368.8 1209.88 1370.99 1201.99 1372.07C1180.05 1375.05 1159.71 1372.34 1138.14 1368.42C1132.4 1367.38 1126.06 1367.51 1120.55 1366C1101.5 1362.58 1085.19 1360.24 1067.79 1350.97C1051.83 1340.5 1033.05 1335.13 1016.6 1325.48C1004.4 1318.33 995.367 1307.59 983.745 1299.8L982.763 1299.15C982.764 1298.89 982.797 1298.63 982.766 1298.37C982.389 1295.22 978.395 1292.54 976.098 1290.63C972.718 1280.16 968.175 1273.43 960.04 1266.09C958.237 1261.68 954.46 1257.09 951.81 1253.03C942.884 1239.35 931.685 1224.72 926.183 1209.29C923.792 1205 922.145 1199.87 920.274 1195.3C910.785 1173.1 906.504 1148.75 899.906 1125.58C891.747 1096.93 881.797 1069.1 871.336 1041.22C862.448 1025.67 860.401 1008.37 849.684 993.297C843.011 992.567 836.592 992.352 831.072 987.975C825.768 983.768 822.321 977.952 818.484 972.476C806.606 955.525 787.105 936.011 770.889 922.852C762.575 916.106 753.303 910.693 745.704 903.083C737.924 896.341 728.998 890.823 720.704 884.714C709.507 876.466 699.075 866.843 686.474 860.765ZM1249.97 1348.58C1252.14 1351.26 1255.75 1351.88 1259.04 1352.44C1265.05 1350.69 1272.04 1352.53 1278.27 1351.92C1280.4 1351.71 1281.46 1351.63 1282.74 1349.95C1279.84 1345.17 1274.66 1341.43 1270.71 1337.44C1259.96 1326.59 1247.91 1314.48 1240.67 1300.88C1240.52 1300.59 1240.38 1300.3 1240.23 1300.01C1227.83 1295.38 1186.47 1199.09 1177.19 1180.76C1169.72 1166.24 1161.57 1152.07 1152.78 1138.31L1150.92 1138.89C1162.76 1159.68 1173.93 1180.51 1184.17 1202.14C1197.61 1230.54 1209.88 1259.73 1226.3 1286.59C1233.45 1298.28 1241.18 1309.4 1250.42 1319.56C1257.44 1327.27 1265.97 1334.56 1271.72 1343.26C1271.03 1345.34 1270.89 1345.51 1268.89 1346.48C1265.11 1348.33 1255.06 1350.43 1251.17 1349.06C1250.77 1348.91 1250.37 1348.74 1249.97 1348.58Z"/>
	<path fill="#5C3C22" fill-opacity="0.97254902" transform="matrix(1.04835 0 0 1.04797 0 -6.10352e-05)" d="M1150.92 1138.89L1152.78 1138.31C1161.57 1152.07 1169.72 1166.24 1177.19 1180.76C1186.47 1199.09 1227.83 1295.38 1240.23 1300.01C1240.38 1300.3 1240.52 1300.59 1240.67 1300.88C1247.91 1314.48 1259.96 1326.59 1270.71 1337.44C1274.66 1341.43 1279.84 1345.17 1282.74 1349.95C1281.46 1351.63 1280.4 1351.71 1278.27 1351.92C1272.04 1352.53 1265.05 1350.69 1259.04 1352.44C1255.75 1351.88 1252.14 1351.26 1249.97 1348.58C1250.37 1348.74 1250.77 1348.91 1251.17 1349.06C1255.06 1350.43 1265.11 1348.33 1268.89 1346.48C1270.89 1345.51 1271.03 1345.34 1271.72 1343.26C1265.97 1334.56 1257.44 1327.27 1250.42 1319.56C1241.18 1309.4 1233.45 1298.28 1226.3 1286.59C1209.88 1259.73 1197.61 1230.54 1184.17 1202.14C1173.93 1180.51 1162.76 1159.68 1150.92 1138.89Z"/>
	<path fill="#89612E" transform="matrix(1.04835 0 0 1.04797 0 -6.10352e-05)" d="M1249.34 1081.04C1280.56 1080.21 1322.91 1095.81 1349.55 1111.67C1362.53 1119.4 1374.71 1129.26 1388.76 1134.97C1396.76 1138.21 1414.17 1143.99 1421.06 1136.23C1422.2 1134.95 1423 1133.42 1423.89 1131.97C1424.5 1130.98 1424.97 1130.47 1425.92 1129.81L1426.52 1135.56L1428.17 1136.39C1434.92 1141.67 1440.93 1147.63 1446.58 1154.06C1456.45 1165.29 1494.03 1213.23 1496.65 1226.06L1494.66 1225.83C1516.45 1254.51 1537.22 1284.74 1563.68 1309.39C1570.63 1315.86 1608.04 1344.17 1609.8 1349.53C1605.9 1353.76 1600.89 1355.86 1595.61 1357.88C1599.54 1358.03 1604.07 1357.35 1607.81 1357.76C1611.97 1357.67 1616.36 1357.15 1620.31 1358.6L1621.03 1360.04C1609.94 1358.54 1606.03 1363.11 1596.61 1366.89C1594.39 1371.63 1584.68 1375.61 1579.74 1377.42C1578.33 1377.93 1576.92 1378.42 1575.49 1378.89C1572.84 1381.94 1566.37 1383.08 1562.45 1384.28C1528.96 1394.52 1495.67 1396.56 1461.18 1400.67C1451.6 1401.82 1442.01 1403.76 1432.4 1404.59C1428.09 1404.96 1423.74 1404.63 1419.75 1402.86C1393.7 1396.88 1366.81 1394.67 1342.2 1383.56C1321.93 1373.66 1302 1365.58 1280.36 1359.21C1278.37 1358.33 1276.39 1357.44 1274.42 1356.55L1274.84 1355.74L1283.61 1355.07C1285.52 1355.46 1287.46 1355.5 1289.4 1355.61L1290.45 1354.5C1280.74 1337.96 1262.87 1326.32 1250.79 1311.1C1247.02 1307.79 1243.85 1303.55 1240.23 1300.01C1234.52 1286.62 1223.58 1273.66 1216.8 1260.19C1193.34 1213.64 1175.7 1164.85 1145.32 1122.01L1129.99 1122.16L1125.13 1118.19L1125.43 1117.42L1132.53 1117.34C1143.63 1117.39 1159.73 1104.94 1170.62 1100.03C1194.53 1089.27 1222.95 1080.15 1249.34 1081.04Z"/>
	<path fill="#C79841" transform="matrix(1.04835 0 0 1.04797 0 -6.10352e-05)" d="M1132.53 1117.34C1143.63 1117.39 1159.73 1104.94 1170.62 1100.03C1194.53 1089.27 1222.95 1080.15 1249.34 1081.04L1256.68 1083.52C1253.89 1085.99 1239.74 1085.91 1235.1 1086.89C1223.34 1089.38 1184.29 1102.66 1178.7 1114.18C1178.98 1118.87 1180.86 1120.43 1184.26 1123.46C1193.94 1132.05 1204.5 1139.64 1214.47 1147.9C1227.73 1158.88 1240.57 1170.37 1253.81 1181.39C1266.59 1192.03 1281.22 1202.85 1291.67 1215.84C1283.51 1211.42 1276.89 1206.35 1269.71 1200.48L1268.37 1200.98L1270.21 1203.61L1270 1201.31L1269.32 1203.1C1269.53 1203.26 1269.75 1203.42 1269.96 1203.59C1277.8 1210.13 1284.88 1218.61 1292.46 1225.63C1313.66 1245.26 1374.02 1297.28 1386.95 1319.8L1386.81 1321.49L1381.96 1322.35C1381.26 1324.62 1381.57 1324.9 1382.67 1327.05C1389.9 1341.14 1431.33 1379.01 1430.51 1392.59C1429.26 1395.03 1428.01 1396.25 1428.61 1398.98L1432.23 1401.03C1430.74 1402.71 1427.78 1402.44 1425.53 1402.6C1423.61 1402.71 1421.68 1402.8 1419.75 1402.86C1393.7 1396.88 1366.81 1394.67 1342.2 1383.56C1321.93 1373.66 1302 1365.58 1280.36 1359.21C1278.37 1358.33 1276.39 1357.44 1274.42 1356.55L1274.84 1355.74L1283.61 1355.07C1285.52 1355.46 1287.46 1355.5 1289.4 1355.61L1290.45 1354.5C1280.74 1337.96 1262.87 1326.32 1250.79 1311.1C1247.02 1307.79 1243.85 1303.55 1240.23 1300.01C1234.52 1286.62 1223.58 1273.66 1216.8 1260.19C1193.34 1213.64 1175.7 1164.85 1145.32 1122.01L1129.99 1122.16L1125.13 1118.19L1125.43 1117.42L1132.53 1117.34Z"/>
	<path fill="#DDAB4A" transform="matrix(1.04835 0 0 1.04797 0 -6.10352e-05)" d="M1250.79 1311.1L1250.43 1310.09C1242.65 1288.96 1209.26 1251.31 1209.77 1230.37L1210.98 1228.32L1212.52 1228.64L1213.12 1229.84C1218.07 1239.53 1225.54 1248.36 1231.94 1257.16C1254.64 1288.4 1278.2 1318.11 1306.73 1344.27C1315.83 1352.62 1344.53 1371.41 1347.06 1381.65C1345.38 1382.75 1344.12 1383.11 1342.2 1383.56C1321.93 1373.66 1302 1365.58 1280.36 1359.21C1278.37 1358.33 1276.39 1357.44 1274.42 1356.55L1274.84 1355.74L1283.61 1355.07C1285.52 1355.46 1287.46 1355.5 1289.4 1355.61L1290.45 1354.5C1280.74 1337.96 1262.87 1326.32 1250.79 1311.1Z"/>
	<path fill="#744F28" transform="matrix(1.04835 0 0 1.04797 0 -6.10352e-05)" d="M1274.86 1101.57C1287.97 1100.08 1300.9 1101.92 1314.02 1100.98C1322.66 1104.11 1332.42 1106.85 1340.4 1111.46C1361.79 1123.86 1393.8 1154.77 1420.45 1141.58C1423.25 1140.2 1425.71 1138.28 1428.17 1136.39C1434.92 1141.67 1440.93 1147.63 1446.58 1154.06C1456.45 1165.29 1494.03 1213.23 1496.65 1226.06L1494.66 1225.83C1516.45 1254.51 1537.22 1284.74 1563.68 1309.39C1570.63 1315.86 1608.04 1344.17 1609.8 1349.53C1605.9 1353.76 1600.89 1355.86 1595.61 1357.88C1599.54 1358.03 1604.07 1357.35 1607.81 1357.76C1611.97 1357.67 1616.36 1357.15 1620.31 1358.6L1621.03 1360.04C1609.94 1358.54 1606.03 1363.11 1596.61 1366.89C1596.89 1365.86 1596.9 1365.28 1596.86 1364.22C1577.4 1370.96 1553.76 1375.48 1533.1 1374.94C1529.75 1358.42 1376.33 1198.07 1355.15 1177.31C1329.03 1151.72 1299.35 1128.63 1274.86 1101.57Z"/>
	<path fill="#5C3C22" transform="matrix(1.04835 0 0 1.04797 0 -6.10352e-05)" d="M1381.03 1150.09C1397.26 1148.78 1414.28 1152.86 1427.73 1141.79C1446.88 1155.54 1481.23 1204.58 1494.66 1225.83C1516.45 1254.51 1537.22 1284.74 1563.68 1309.39C1570.63 1315.86 1608.04 1344.17 1609.8 1349.53C1605.9 1353.76 1600.89 1355.86 1595.61 1357.88C1592.04 1360.2 1586.88 1361 1582.76 1361.74C1581.68 1360.86 1579.98 1360.01 1578.73 1359.42C1568.51 1354.56 1559.48 1343.9 1551.21 1336.13C1489.74 1278.37 1436.25 1213.65 1381.03 1150.09Z"/>
	<path fill="#A97E38" transform="matrix(1.04835 0 0 1.04797 0 -6.10352e-05)" d="M1249.34 1081.04C1280.56 1080.21 1322.91 1095.81 1349.55 1111.67C1362.53 1119.4 1374.71 1129.26 1388.76 1134.97C1396.76 1138.21 1414.17 1143.99 1421.06 1136.23C1422.2 1134.95 1423 1133.42 1423.89 1131.97C1424.5 1130.98 1424.97 1130.47 1425.92 1129.81L1426.52 1135.56L1428.17 1136.39C1425.71 1138.28 1423.25 1140.2 1420.45 1141.58C1393.8 1154.77 1361.79 1123.86 1340.4 1111.46C1332.42 1106.85 1322.66 1104.11 1314.02 1100.98C1291.18 1091.61 1254.85 1082.23 1230.98 1092.13C1227.26 1093.67 1223.16 1096.09 1221.46 1099.91C1220.32 1102.5 1220.57 1105.09 1221.68 1107.63C1229.96 1126.67 1285.17 1165.63 1303.15 1183.22C1309.71 1189.63 1308.52 1197.54 1314.47 1203.81C1340.49 1231.21 1369.15 1256.47 1395.62 1283.53C1407.15 1295.31 1416.42 1309.19 1427.89 1320.89C1433.15 1326.25 1440.33 1327.99 1445.97 1332.58C1453.39 1338.62 1483.46 1372.05 1485.3 1380.34C1514.92 1384.15 1532.17 1388.01 1562.13 1379.12C1566.77 1377.74 1571.66 1376.95 1576.1 1375.03L1576.67 1375.73L1575.49 1378.89C1572.84 1381.94 1566.37 1383.08 1562.45 1384.28C1528.96 1394.52 1495.67 1396.56 1461.18 1400.67C1451.6 1401.82 1442.01 1403.76 1432.4 1404.59C1428.09 1404.96 1423.74 1404.63 1419.75 1402.86C1421.68 1402.8 1423.61 1402.71 1425.53 1402.6C1427.78 1402.44 1430.74 1402.71 1432.23 1401.03L1428.61 1398.98C1428.01 1396.25 1429.26 1395.03 1430.51 1392.59C1431.33 1379.01 1389.9 1341.14 1382.67 1327.05C1381.57 1324.9 1381.26 1324.62 1381.96 1322.35L1386.81 1321.49L1386.95 1319.8C1374.02 1297.28 1313.66 1245.26 1292.46 1225.63C1284.88 1218.61 1277.8 1210.13 1269.96 1203.59C1269.75 1203.42 1269.53 1203.26 1269.32 1203.1L1270 1201.31L1270.21 1203.61L1268.37 1200.98L1269.71 1200.48C1276.89 1206.35 1283.51 1211.42 1291.67 1215.84C1281.22 1202.85 1266.59 1192.03 1253.81 1181.39C1240.57 1170.37 1227.73 1158.88 1214.47 1147.9C1204.5 1139.64 1193.94 1132.05 1184.26 1123.46C1180.86 1120.43 1178.98 1118.87 1178.7 1114.18C1184.29 1102.66 1223.34 1089.38 1235.1 1086.89C1239.74 1085.91 1253.89 1085.99 1256.68 1083.52L1249.34 1081.04Z"/>
	<path fill="#A97E38" transform="matrix(1.04835 0 0 1.04797 0 -6.10352e-05)" d="M871.336 1041.22C870.519 1035.57 867.842 1023.7 871.439 1018.97C871.883 1018.39 872.214 1018.14 872.783 1017.61C875.366 1017.51 877.845 1020.22 879.705 1022C884.691 1026.76 888.778 1032.44 893.922 1037.03C902.947 1045.1 912.648 1052.15 921.32 1060.66C933.613 1072.74 945.122 1085.62 957.671 1097.43C975.534 1114.25 994.271 1130.03 1011.73 1147.3C1024.01 1159.31 1036.01 1171.6 1047.73 1184.16C1056.67 1193.87 1065.13 1204.38 1074.84 1213.31C1077.79 1213.95 1080.71 1214.55 1083.71 1214.95C1111.26 1239.74 1132.81 1270.48 1158.9 1296.65C1171.59 1309.38 1187.35 1319.45 1201.4 1330.69C1217.3 1343.4 1225.1 1356.62 1247.53 1355.68C1259.09 1355.19 1272.43 1351.35 1283.61 1355.07L1274.84 1355.74L1274.42 1356.55C1276.39 1357.44 1278.37 1358.33 1280.36 1359.21C1258.63 1357.68 1257.71 1363.44 1239.39 1366.96C1234.82 1367.84 1230.12 1367.07 1225.49 1367.71C1217.61 1368.8 1209.88 1370.99 1201.99 1372.07C1180.05 1375.05 1159.71 1372.34 1138.14 1368.42C1132.4 1367.38 1126.06 1367.51 1120.55 1366C1101.5 1362.58 1085.19 1360.24 1067.79 1350.97C1051.83 1340.5 1033.05 1335.13 1016.6 1325.48C1004.4 1318.33 995.367 1307.59 983.745 1299.8L982.763 1299.15C982.764 1298.89 982.797 1298.63 982.766 1298.37C982.389 1295.22 978.395 1292.54 976.098 1290.63C972.718 1280.16 968.175 1273.43 960.04 1266.09C958.237 1261.68 954.46 1257.09 951.81 1253.03C942.884 1239.35 931.685 1224.72 926.183 1209.29C923.792 1205 922.145 1199.87 920.274 1195.3C910.785 1173.1 906.504 1148.75 899.906 1125.58C891.747 1096.93 881.797 1069.1 871.336 1041.22Z"/>
	<path fill="#C79841" transform="matrix(1.04835 0 0 1.04797 0 -6.10352e-05)" d="M919.221 1163.08C922.293 1166.95 924.526 1170.12 929.207 1172.02C930.69 1172.62 932.157 1173.23 933.66 1173.79C937.363 1178.26 939.334 1183.72 942.93 1188.15C945.923 1191.83 972.757 1218.29 975.207 1218.81C977.956 1217.24 978.199 1217.05 981.319 1217.41C985.833 1220.42 989.457 1225.4 994.494 1227.27L996.244 1226.73C996.246 1222.75 992.551 1217.84 990.546 1214.41C1012.05 1232.09 1031.15 1254.41 1049.26 1275.49C1059.17 1287.03 1068.13 1298.99 1079.9 1308.75C1068.03 1282.96 1046.37 1265.47 1028.55 1244.15C1037.48 1251.87 1045.08 1260.81 1053.49 1269.04C1063.15 1278.5 1073.77 1287.14 1082.88 1297.14C1095.37 1310.85 1106.74 1325.76 1119.82 1338.91C1126.57 1345.7 1144.49 1355.83 1147.2 1364.67L1146.39 1365.78C1137.74 1366.43 1129.2 1364.99 1120.55 1366C1101.5 1362.58 1085.19 1360.24 1067.79 1350.97C1051.83 1340.5 1033.05 1335.13 1016.6 1325.48C1004.4 1318.33 995.367 1307.59 983.745 1299.8L982.763 1299.15C982.764 1298.89 982.797 1298.63 982.766 1298.37C982.389 1295.22 978.395 1292.54 976.098 1290.63C972.718 1280.16 968.175 1273.43 960.04 1266.09C958.237 1261.68 954.46 1257.09 951.81 1253.03C942.884 1239.35 931.685 1224.72 926.183 1209.29C923.792 1205 922.145 1199.87 920.274 1195.3C920.059 1184.58 920.071 1173.78 919.221 1163.08Z"/>
	<path fill="#DDAB4A" transform="matrix(1.04835 0 0 1.04797 0 -6.10352e-05)" d="M925.349 1184.46C937.56 1197.54 947.229 1212.86 958.284 1226.89C974.562 1247.56 992.159 1267.42 1010.03 1286.72C1016.7 1293.93 1023.41 1301.63 1030.78 1308.12C1041.2 1317.3 1072.15 1336.03 1075.81 1347.82L1075.24 1350.47L1067.79 1350.97C1051.83 1340.5 1033.05 1335.13 1016.6 1325.48C1004.4 1318.33 995.367 1307.59 983.745 1299.8L982.763 1299.15C982.764 1298.89 982.797 1298.63 982.766 1298.37C982.389 1295.22 978.395 1292.54 976.098 1290.63C972.718 1280.16 968.175 1273.43 960.04 1266.09C958.237 1261.68 954.46 1257.09 951.81 1253.03C942.884 1239.35 931.685 1224.72 926.183 1209.29C926.139 1201.01 925.861 1192.73 925.349 1184.46Z"/>
	<path fill="#DDAB4A" transform="matrix(1.04835 0 0 1.04797 0 -6.10352e-05)" d="M995.608 1252.97C1010.28 1261.04 1031.27 1293.5 1044.81 1306.62C1058.33 1319.73 1078.36 1326.95 1090.7 1340.85C1091.48 1341.72 1091.89 1342.63 1092.37 1343.68L1090.89 1345.21C1073.26 1333.44 1052.75 1323.93 1036.52 1310.34C1032.43 1306.91 1031.02 1303.3 1030.65 1298.16C1030.17 1291.58 996.897 1263.99 995.608 1252.97Z"/>
	<path fill="#5C3C22" transform="matrix(1.04835 0 0 1.04797 0 -6.10352e-05)" d="M1216.8 1314.18C1188.22 1288.61 1176.63 1244.41 1153.03 1214.28C1145.22 1204.31 1135.54 1196.05 1127.27 1186.51C1114.11 1171.34 1101.61 1155.76 1087.97 1141C1053.18 1103.37 1016.28 1068.6 979.107 1033.4C973.847 1028.42 954.249 1011.89 954.067 1005.11L955.91 1003.92C964.154 1003.92 973.249 1009.11 980.71 1012.43C990.804 1016.92 1001.29 1020.65 1011.13 1025.7C1026.03 1033.35 1039.58 1043.45 1053.21 1053.11C1061.18 1061.43 1071.34 1066.29 1079.49 1074.1C1095.97 1089.9 1107.18 1111.12 1126.57 1123.9C1132.66 1123.98 1138.86 1123.84 1144.91 1124.58C1147.5 1129.09 1150.52 1133.64 1152.78 1138.31L1150.92 1138.89C1162.76 1159.68 1173.93 1180.51 1184.17 1202.14C1197.61 1230.54 1209.88 1259.73 1226.3 1286.59C1233.45 1298.28 1241.18 1309.4 1250.42 1319.56C1257.44 1327.27 1265.97 1334.56 1271.72 1343.26C1271.03 1345.34 1270.89 1345.51 1268.89 1346.48C1265.11 1348.33 1255.06 1350.43 1251.17 1349.06C1250.77 1348.91 1250.37 1348.74 1249.97 1348.58C1252.14 1351.26 1255.75 1351.88 1259.04 1352.44C1256.6 1352.9 1253.97 1353.25 1251.5 1352.82C1240.73 1350.91 1223.56 1323.32 1216.8 1314.18Z"/>
	<path fill="#27231E" transform="matrix(1.04835 0 0 1.04797 0 -6.10352e-05)" d="M1249.97 1348.58C1236.49 1336.79 1227.47 1322.21 1217.56 1307.56C1209.4 1295.5 1200.16 1284.08 1192.85 1271.48C1176.71 1243.64 1165.12 1213.63 1151.01 1184.79C1143.66 1169.76 1132.92 1154.21 1128.23 1138.18C1127.12 1134.4 1126.95 1131.86 1128.82 1128.42C1130.52 1127.57 1131.62 1127.17 1133.55 1127.42C1141.59 1128.46 1146.24 1132.66 1150.92 1138.89C1162.76 1159.68 1173.93 1180.51 1184.17 1202.14C1197.61 1230.54 1209.88 1259.73 1226.3 1286.59C1233.45 1298.28 1241.18 1309.4 1250.42 1319.56C1257.44 1327.27 1265.97 1334.56 1271.72 1343.26C1271.03 1345.34 1270.89 1345.51 1268.89 1346.48C1265.11 1348.33 1255.06 1350.43 1251.17 1349.06C1250.77 1348.91 1250.37 1348.74 1249.97 1348.58Z"/>
	<defs>
		<linearGradient id="gradient_2" gradientUnits="userSpaceOnUse" x1="2239.4375" y1="983.79846" x2="1984.8542" y2="1217.4441">
			<stop offset="0" stop-color="#734F27"/>
			<stop offset="1" stop-color="#E7B54E"/>
		</linearGradient>
	</defs>
	<path fill="url(#gradient_2)" transform="matrix(1.04835 0 0 1.04797 0 -6.10352e-05)" d="M2478.72 829.128C2496 829.775 2523.2 818.172 2539.1 811.587C2544.87 809.198 2552.54 804.955 2558.73 804.274C2560.69 804.059 2561.04 804.435 2562.52 805.532L2563.03 810.279L2564.58 810.919C2564.58 812.835 2564.94 812.911 2563.62 814.43C2561.18 817.231 2559.31 819.484 2558.24 823.139C2560.02 828.584 2557.33 832.834 2556.12 838.192C2554.34 846.027 2553.38 853.986 2551.1 861.713C2548.63 870.049 2544.87 877.98 2542.55 886.322L2539.95 888.128C2538.59 899.536 2531.6 908.449 2526.06 918.165C2526.05 919.979 2526.34 920.044 2525.17 921.552C2517.97 930.898 2497.16 960.346 2486.6 963.924C2483.62 972.132 2467.5 984.185 2459.53 987.796C2458.51 988.258 2457.54 988.636 2456.46 988.923C2451.33 996.35 2428.32 1005.9 2419.57 1011.47C2412.18 1016.18 2402.61 1024.96 2394.65 1027.84C2394 1034.49 2380.63 1043.98 2378.71 1052.5C2378.46 1053.6 2378.18 1054.68 2377.94 1055.79L2375.76 1058.03C2375.42 1059.44 2375.07 1060.6 2374.46 1061.91C2373.85 1063.22 2373.58 1064.38 2373.25 1065.78C2369.05 1083.62 2352.57 1109.56 2341.3 1124.11C2339.01 1127.06 2336.21 1129.15 2333.84 1131.91C2333.03 1134.07 2330.18 1138.62 2327.91 1139.44C2327.58 1139.57 2327.23 1139.65 2326.89 1139.76C2326.23 1141.28 2325.54 1142.79 2324.82 1144.29C2321.11 1151.99 2309.14 1161.46 2302.05 1166.02C2289.89 1190.23 2189.53 1227.41 2159.87 1235.64C2158.93 1235.9 2158.57 1235.91 2157.7 1236C2154.14 1235.09 2149.76 1237.09 2146.9 1235.35C2147.72 1234.01 2147.91 1233.06 2148.11 1231.5C2141.35 1224.25 2112.51 1228.5 2102.02 1228.11C2092.56 1227.75 2081.73 1226.67 2072.64 1223.93C2042.46 1214.85 1987.3 1184.88 1960.4 1167.3C1938.07 1152.7 1916.85 1136.62 1893.76 1123.16L1897.66 1122.77C1897.68 1121.15 1897.15 1119.9 1896.12 1118.66C1894.05 1116.16 1890.57 1114.68 1888.26 1112.15C1882.47 1105.81 1877.66 1098.41 1871.84 1092.2C1869.78 1089.99 1866.77 1090.38 1863.97 1090.16C1885.53 1071.93 1939.18 1051.06 1967.23 1045.1C1985.31 1041.26 2004.23 1038.77 2022.59 1036.42C2029.8 1035.49 2037.28 1035.27 2044.41 1033.97C2046.96 1033.5 2048.83 1032.54 2050.9 1031.04C2051.09 1030.93 2051.29 1030.82 2051.48 1030.69C2051.79 1030.49 2052.08 1030.26 2052.39 1030.05C2061.5 1023.84 2065.1 998.637 2076 988.018C2079 986.885 2084.42 980.69 2087.19 978.352C2098.77 968.562 2107.98 957.355 2118.89 947.04C2129.91 936.63 2142.63 928.024 2154.95 919.25C2166.42 911.067 2178.56 903.859 2191.24 897.701C2208.41 889.261 2234.39 882.803 2247.7 869.026C2252.48 862.945 2255.31 858.293 2257.68 850.871L2257.97 851.727C2258.92 854.641 2259.47 857.373 2259.84 860.41L2261.8 860.979C2297.83 842.889 2365.28 836.945 2406.42 834.713C2418.8 834.042 2470.98 833.129 2478.72 829.128Z"/>
	<defs>
		<linearGradient id="gradient_3" gradientUnits="userSpaceOnUse" x1="2479.2334" y1="784.99506" x2="2147.7339" y2="1105.5836">
			<stop offset="0" stop-color="#613F22"/>
			<stop offset="1" stop-color="#EDBA50"/>
		</linearGradient>
	</defs>
	<path fill="url(#gradient_3)" transform="matrix(1.04835 0 0 1.04797 0 -6.10352e-05)" d="M2478.72 829.128C2496 829.775 2523.2 818.172 2539.1 811.587C2544.87 809.198 2552.54 804.955 2558.73 804.274C2560.69 804.059 2561.04 804.435 2562.52 805.532L2563.03 810.279L2564.58 810.919C2564.58 812.835 2564.94 812.911 2563.62 814.43C2561.18 817.231 2559.31 819.484 2558.24 823.139C2560.02 828.584 2557.33 832.834 2556.12 838.192C2554.34 846.027 2553.38 853.986 2551.1 861.713C2548.63 870.049 2544.87 877.98 2542.55 886.322L2539.95 888.128C2538.59 899.536 2531.6 908.449 2526.06 918.165C2526.05 919.979 2526.34 920.044 2525.17 921.552C2517.97 930.898 2497.16 960.346 2486.6 963.924C2483.62 972.132 2467.5 984.185 2459.53 987.796C2458.51 988.258 2457.54 988.636 2456.46 988.923C2451.33 996.35 2428.32 1005.9 2419.57 1011.47C2412.18 1016.18 2402.61 1024.96 2394.65 1027.84C2392.97 1027.81 2391.32 1027.8 2389.65 1027.6C2389.72 1026.22 2389.78 1024.83 2389.87 1023.46C2389.9 1022.96 2389.33 1022.4 2389.04 1021.99C2376.16 1020.64 2350.43 1031.85 2336.14 1034.48C2315.74 1038.24 2294 1038.85 2273.31 1038.32C2230.88 1037.22 2188.8 1031.35 2146.73 1026.24C2119.89 1022.98 2091.94 1015.87 2064.96 1020.15C2060.22 1011.28 2073.87 996.466 2076 988.018C2079 986.885 2084.42 980.69 2087.19 978.352C2098.77 968.562 2107.98 957.355 2118.89 947.04C2129.91 936.63 2142.63 928.024 2154.95 919.25C2166.42 911.067 2178.56 903.859 2191.24 897.701C2208.41 889.261 2234.39 882.803 2247.7 869.026C2252.48 862.945 2255.31 858.293 2257.68 850.871L2257.97 851.727C2258.92 854.641 2259.47 857.373 2259.84 860.41L2261.8 860.979C2297.83 842.889 2365.28 836.945 2406.42 834.713C2418.8 834.042 2470.98 833.129 2478.72 829.128Z"/>
	<path fill="#5C3C22" transform="matrix(1.04835 0 0 1.04797 0 -6.10352e-05)" d="M2478.72 829.128C2496 829.775 2523.2 818.172 2539.1 811.587C2544.87 809.198 2552.54 804.955 2558.73 804.274C2560.69 804.059 2561.04 804.435 2562.52 805.532L2563.03 810.279L2564.58 810.919C2564.58 812.835 2564.94 812.911 2563.62 814.43C2561.18 817.231 2559.31 819.484 2558.24 823.139C2560.02 828.584 2557.33 832.834 2556.12 838.192C2554.34 846.027 2553.38 853.986 2551.1 861.713C2548.63 870.049 2544.87 877.98 2542.55 886.322L2539.95 888.128C2538.61 887.717 2538.41 887.432 2537.47 886.447C2538.75 883.147 2538.37 879.615 2539.37 876.238C2540.98 870.838 2543.97 865.591 2544.37 859.913C2544.51 857.819 2544.8 856.02 2545.32 853.984L2545.52 853.233C2543.46 853.606 2540.89 870.102 2535.86 872.991C2534.36 873.857 2533.17 873.221 2531.54 872.901C2518.32 872.4 2512.6 868.987 2501.69 861.82C2499.33 860.272 2496.52 858.131 2493.8 857.32C2490.85 856.436 2486.67 857.007 2483.59 857.186C2480.49 859.258 2462.31 859.837 2457.01 860.975L2458.86 861.135C2440.36 863.068 2421.3 864.279 2402.7 864.438C2373.89 864.499 2331.8 861.308 2304.67 866.101C2295.85 865.786 2286.11 868.567 2277.35 869.716C2272.4 870.365 2265.05 871.304 2260.89 868.088C2260.14 865.165 2260.67 864.718 2261.8 862.017L2261.8 860.979C2297.83 842.889 2365.28 836.945 2406.42 834.713C2418.8 834.042 2470.98 833.129 2478.72 829.128Z"/>
	<path fill="#A97E38" transform="matrix(1.04835 0 0 1.04797 0 -6.10352e-05)" d="M2425.52 987.847C2445.94 983.422 2462.2 971.483 2479.56 960.635C2481.89 959.175 2484.19 957.608 2486.94 958.25C2487.93 960.623 2487.27 961.495 2486.6 963.924C2483.62 972.132 2467.5 984.185 2459.53 987.796C2458.51 988.258 2457.54 988.636 2456.46 988.923C2450.38 987.626 2427.76 992.485 2419.39 992.928C2418.33 989.355 2413.35 985.007 2410.75 982.168L2411.08 980.828C2412.7 980.663 2414 980.582 2415.59 980.983C2419.84 982.054 2423.17 984.147 2425.52 987.847Z"/>
	<path fill="#89612E" transform="matrix(1.04835 0 0 1.04797 0 -6.10352e-05)" d="M2247.7 869.026C2252.48 862.945 2255.31 858.293 2257.68 850.871L2257.97 851.727C2258.92 854.641 2259.47 857.373 2259.84 860.41L2261.8 860.979L2261.8 862.017C2260.67 864.718 2260.14 865.165 2260.89 868.088C2265.05 871.304 2272.4 870.365 2277.35 869.716C2286.11 868.567 2295.85 865.786 2304.67 866.101C2301.52 869.36 2269.37 873.676 2262.48 873.796C2258.64 873.862 2256.82 873.492 2253.97 870.775C2253.49 870.316 2253.03 869.834 2252.57 869.359L2247.7 869.026Z"/>
	<path fill="#5C3C22" transform="matrix(1.04835 0 0 1.04797 0 -6.10352e-05)" d="M2064.96 1020.15C2091.94 1015.87 2119.89 1022.98 2146.73 1026.24C2188.8 1031.35 2230.88 1037.22 2273.31 1038.32C2294 1038.85 2315.74 1038.24 2336.14 1034.48C2350.43 1031.85 2376.16 1020.64 2389.04 1021.99C2389.33 1022.4 2389.9 1022.96 2389.87 1023.46C2389.78 1024.83 2389.72 1026.22 2389.65 1027.6C2391.32 1027.8 2392.97 1027.81 2394.65 1027.84C2394 1034.49 2380.63 1043.98 2378.71 1052.5C2378.46 1053.6 2378.18 1054.68 2377.94 1055.79L2375.76 1058.03L2375.99 1049.39L2375.27 1048.73C2371.86 1053.32 2369.53 1058.43 2364.84 1061.87C2364.88 1062.52 2364.92 1062.67 2364.78 1063.39C2363.85 1068.28 2357.13 1076.34 2353.05 1079.3C2351.2 1080.64 2351.01 1080.68 2348.8 1080.24C2349.14 1078.35 2349.23 1078.32 2348.3 1076.66C2343.33 1075.8 2338.96 1077.56 2334.17 1078.77C2327.89 1074.16 2302.56 1062 2294.96 1060.17C2278.83 1056.29 2261.33 1058.5 2244.79 1056.49C2202.01 1051.3 2159.08 1042.84 2116.23 1038.97C2101.72 1037.66 2085.27 1039.94 2071.18 1036.49C2067.19 1035.51 2064.76 1034.44 2062.57 1030.91C2061.95 1026.45 2063 1024.08 2064.96 1020.15Z"/>
	<path fill="#744F28" transform="matrix(1.04835 0 0 1.04797 0 -6.10352e-05)" d="M2050.9 1031.04C2051.09 1030.93 2051.29 1030.82 2051.48 1030.69C2051.79 1030.49 2052.08 1030.26 2052.39 1030.05C2061.5 1023.84 2065.1 998.637 2076 988.018C2073.87 996.466 2060.22 1011.28 2064.96 1020.15C2063 1024.08 2061.95 1026.45 2062.57 1030.91C2064.76 1034.44 2067.19 1035.51 2071.18 1036.49C2085.27 1039.94 2101.72 1037.66 2116.23 1038.97C2159.08 1042.84 2202.01 1051.3 2244.79 1056.49C2261.33 1058.5 2278.83 1056.29 2294.96 1060.17C2302.56 1062 2327.89 1074.16 2334.17 1078.77C2338.96 1077.56 2343.33 1075.8 2348.3 1076.66C2349.23 1078.32 2349.14 1078.35 2348.8 1080.24C2351.01 1080.68 2351.2 1080.64 2353.05 1079.3C2357.13 1076.34 2363.85 1068.28 2364.78 1063.39C2364.92 1062.67 2364.88 1062.52 2364.84 1061.87C2369.53 1058.43 2371.86 1053.32 2375.27 1048.73L2375.99 1049.39L2375.76 1058.03C2375.42 1059.44 2375.07 1060.6 2374.46 1061.91C2373.85 1063.22 2373.58 1064.38 2373.25 1065.78C2369.05 1083.62 2352.57 1109.56 2341.3 1124.11C2339.01 1127.06 2336.21 1129.15 2333.84 1131.91L2330.45 1131.64L2329.74 1130.61L2331.44 1131.4L2330.04 1129.57C2330.7 1125.22 2333.94 1126.35 2336.34 1124.02C2337.22 1123.17 2337.08 1120.28 2337.63 1119.2C2340.02 1114.42 2345.1 1111.28 2347.31 1105.65C2347.9 1104.15 2348.19 1104.13 2347.56 1102.63C2340.31 1108.11 2337.19 1117.88 2328.95 1122.96L2327.11 1121.86C2323.85 1125.2 2315.47 1132.34 2310.95 1132.78C2303.46 1133.5 2300.19 1118.54 2293.59 1113.29C2293.33 1113.08 2293.07 1112.88 2292.8 1112.67C2290.9 1111.07 2287.06 1111.21 2285.14 1109.79C2283.49 1108.56 2282.12 1106.03 2280.36 1104.55C2277.8 1106.22 2275.53 1107.57 2272.64 1108.58L2270.68 1107.6C2269.53 1103.63 2272.13 1100.82 2271.16 1097.37C2271.07 1097.04 2270.95 1096.71 2270.84 1096.38C2270.14 1092.34 2266.67 1089.68 2265.23 1085.9C2263.7 1081.87 2265.43 1077.62 2264.29 1073.7C2259.08 1055.74 2146.63 1046.69 2126.59 1045.24C2109.51 1044 2069.49 1044.62 2056.75 1037.7C2055.13 1035.12 2055.62 1034.81 2056.22 1031.94L2055.22 1030.96L2050.9 1031.04Z"/>
	<path fill="#89612E" transform="matrix(1.04835 0 0 1.04797 0 -6.10352e-05)" d="M2364.84 1061.87C2369.53 1058.43 2371.86 1053.32 2375.27 1048.73L2375.99 1049.39L2375.76 1058.03C2375.42 1059.44 2375.07 1060.6 2374.46 1061.91C2373.85 1063.22 2373.58 1064.38 2373.25 1065.78C2369.05 1083.62 2352.57 1109.56 2341.3 1124.11C2339.01 1127.06 2336.21 1129.15 2333.84 1131.91L2330.45 1131.64L2329.74 1130.61L2331.44 1131.4L2330.04 1129.57C2330.7 1125.22 2333.94 1126.35 2336.34 1124.02C2337.22 1123.17 2337.08 1120.28 2337.63 1119.2C2340.02 1114.42 2345.1 1111.28 2347.31 1105.65C2347.9 1104.15 2348.19 1104.13 2347.56 1102.63C2340.31 1108.11 2337.19 1117.88 2328.95 1122.96L2327.11 1121.86C2338.39 1116.03 2352.69 1091.63 2359.17 1080.41C2362.55 1074.54 2366.67 1068.7 2364.84 1061.87Z"/>
	<path fill="#A97E38" transform="matrix(1.04835 0 0 1.04797 0 -6.10352e-05)" d="M2252.04 1182.51C2249.89 1174.9 2238.32 1172.98 2236.96 1165.03L2238.01 1163.57C2247.6 1161.75 2256.17 1169.21 2265.73 1169.95C2283.58 1171.34 2300.16 1152.56 2312.84 1142.05C2316.7 1138.85 2322 1133.34 2327.24 1133.83C2328.22 1136.33 2327.58 1137.22 2326.89 1139.76C2326.23 1141.28 2325.54 1142.79 2324.82 1144.29C2321.11 1151.99 2309.14 1161.46 2302.05 1166.02C2300.95 1166.06 2299.92 1165.88 2298.83 1165.73C2299.16 1164.46 2299.33 1163.66 2299.31 1162.33C2288.53 1162.53 2275.46 1174.37 2265.46 1178.92C2261.24 1180.84 2256.56 1181.64 2252.04 1182.51Z"/>
	<path fill="#89612E" transform="matrix(1.04835 0 0 1.04797 0 -6.10352e-05)" d="M1863.97 1090.16C1866.77 1090.38 1869.78 1089.99 1871.84 1092.2C1877.66 1098.41 1882.47 1105.81 1888.26 1112.15C1890.57 1114.68 1894.05 1116.16 1896.12 1118.66C1897.15 1119.9 1897.68 1121.15 1897.66 1122.77L1893.76 1123.16C1916.85 1136.62 1938.07 1152.7 1960.4 1167.3C1987.3 1184.88 2042.46 1214.85 2072.64 1223.93C2081.73 1226.67 2092.56 1227.75 2102.02 1228.11C2112.51 1228.5 2141.35 1224.25 2148.11 1231.5C2147.91 1233.06 2147.72 1234.01 2146.9 1235.35C2149.76 1237.09 2154.14 1235.09 2157.7 1236C2154.31 1238.5 2133.92 1247.59 2129.48 1248.77C2120.96 1257.66 2112.52 1266.34 2102.61 1273.72C2078.96 1291.33 2033 1313.4 2003.55 1315.86C1998.71 1319.93 1962.22 1319.69 1953.65 1320.06C1929.35 1326.21 1892.91 1313.15 1870.35 1321.31C1862.98 1323.98 1859.46 1331.25 1852.95 1334.13C1848.18 1342.99 1790.58 1370.01 1779.22 1373.27C1778.66 1373.43 1778.09 1373.57 1777.52 1373.68C1777.23 1373.97 1776.72 1374.53 1776.34 1374.78C1771.86 1377.75 1761.94 1379.17 1756.56 1380.56C1747.48 1382.91 1737.73 1383.85 1728.37 1384.41C1685.39 1386.99 1660.34 1368.84 1621.03 1360.04L1620.31 1358.6C1616.36 1357.15 1611.97 1357.67 1607.81 1357.76C1610.02 1356.56 1612.46 1355.4 1614.51 1353.95C1616.53 1352.52 1617.04 1351.8 1617.45 1349.39C1611.75 1340.49 1577.04 1317 1566.43 1307.21C1553.63 1295.41 1541.7 1282.69 1530.74 1269.16C1523.52 1260.15 1516.5 1248.34 1507.95 1240.74C1506.4 1234.38 1502.16 1230.48 1497.66 1226.06L1496.65 1226.06C1494.03 1213.23 1456.45 1165.29 1446.58 1154.06C1440.93 1147.63 1434.92 1141.67 1428.17 1136.39L1426.52 1135.56L1425.92 1129.81C1426.74 1129.08 1427.58 1128.38 1428.41 1127.66C1429.27 1126.91 1430.1 1126.18 1431.02 1125.5C1453.08 1109.19 1519.37 1099.61 1547.29 1103.88C1566.96 1103.5 1595.17 1108.32 1612.27 1118.77L1612.87 1119.91C1613.1 1119.94 1613.34 1119.97 1613.57 1120.01C1632.45 1123.15 1652.95 1144.89 1672.62 1131.02C1675.58 1128.93 1678.3 1126.32 1680.98 1123.88C1684.73 1122.19 1688.01 1119.58 1691.89 1117.93C1702.24 1113.52 1712.9 1111.2 1723.57 1107.94C1744.92 1103.93 1806.19 1097.5 1824.31 1109.1C1824.93 1109.5 1825.07 1109.63 1825.6 1110.03C1830.91 1109.87 1837.1 1110.17 1842 1108C1847.07 1105.43 1851.43 1101.31 1855.02 1096.94C1858.59 1095.17 1861.28 1093.12 1863.97 1090.16Z"/>
	<path fill="#A97E38" transform="matrix(1.04835 0 0 1.04797 0 -6.10352e-05)" d="M1863.97 1090.16C1866.77 1090.38 1869.78 1089.99 1871.84 1092.2C1877.66 1098.41 1882.47 1105.81 1888.26 1112.15C1890.57 1114.68 1894.05 1116.16 1896.12 1118.66C1897.15 1119.9 1897.68 1121.15 1897.66 1122.77L1893.76 1123.16C1916.85 1136.62 1938.07 1152.7 1960.4 1167.3C1987.3 1184.88 2042.46 1214.85 2072.64 1223.93C2081.73 1226.67 2092.56 1227.75 2102.02 1228.11C2112.51 1228.5 2141.35 1224.25 2148.11 1231.5C2147.91 1233.06 2147.72 1234.01 2146.9 1235.35C2149.76 1237.09 2154.14 1235.09 2157.7 1236C2154.31 1238.5 2133.92 1247.59 2129.48 1248.77C2120.96 1257.66 2112.52 1266.34 2102.61 1273.72C2078.96 1291.33 2033 1313.4 2003.55 1315.86C1998.71 1319.93 1962.22 1319.69 1953.65 1320.06C1944.95 1317.55 1929.71 1319.65 1919.92 1319.16C1909.3 1318.64 1898.7 1317.38 1888.05 1316.8C1892.64 1316.19 1897.69 1315.34 1901.92 1313.41C1893.29 1306.2 1879.59 1304.56 1868.84 1302.04C1837.27 1292.52 1807.06 1271.77 1783.26 1249.34C1772.48 1239.03 1762.29 1228.12 1752.74 1216.66C1738.21 1199.51 1697.6 1144.79 1678.82 1136.81C1676.93 1136 1674.47 1135.84 1672.43 1135.62L1671.11 1135.49C1674.76 1132.42 1679.71 1128.47 1680.98 1123.88C1684.73 1122.19 1688.01 1119.58 1691.89 1117.93C1702.24 1113.52 1712.9 1111.2 1723.57 1107.94C1744.92 1103.93 1806.19 1097.5 1824.31 1109.1C1824.93 1109.5 1825.07 1109.63 1825.6 1110.03C1830.91 1109.87 1837.1 1110.17 1842 1108C1847.07 1105.43 1851.43 1101.31 1855.02 1096.94C1858.59 1095.17 1861.28 1093.12 1863.97 1090.16Z"/>
	<path fill="#DDAB4A" transform="matrix(1.04835 0 0 1.04797 0 -6.10352e-05)" d="M1680.98 1123.88C1684.73 1122.19 1688.01 1119.58 1691.89 1117.93C1702.24 1113.52 1712.9 1111.2 1723.57 1107.94C1731.44 1108.3 1734.4 1108.74 1740.6 1113.98C1740.81 1114.06 1741.02 1114.14 1741.23 1114.21C1745.45 1115.66 1752.76 1114.68 1755.83 1117.04C1754.77 1118.67 1753.75 1119.79 1752.35 1121.1C1750.79 1125.46 1750.96 1131.23 1753.07 1135.42C1756.32 1141.84 1775.3 1156.52 1781.52 1161.99C1793.47 1172.5 1839.28 1215.15 1844.7 1227.15C1845.46 1228.84 1845.27 1231.01 1845.21 1232.82C1843.41 1227.33 1838.9 1223.58 1833.79 1221.1C1831.88 1220.18 1830.98 1220.28 1829.01 1220.88C1827.96 1222.91 1827.11 1224.23 1827.77 1226.57C1828.77 1230.16 1831.31 1231.92 1830.82 1235.83C1829.27 1237.19 1827.28 1238.13 1827.34 1240.39C1827.44 1244.21 1830.73 1248.41 1831.23 1252.49C1835.64 1253.3 1839.84 1253.92 1843.72 1256.33C1852.37 1261.69 1858.59 1270.76 1866.84 1276.69C1875.5 1282.9 1888.72 1286.28 1895.22 1295.1C1896.63 1297.01 1896.89 1298.12 1896.55 1300.41C1889.99 1304.34 1876.52 1301.8 1868.84 1302.04C1837.27 1292.52 1807.06 1271.77 1783.26 1249.34C1772.48 1239.03 1762.29 1228.12 1752.74 1216.66C1738.21 1199.51 1697.6 1144.79 1678.82 1136.81C1676.93 1136 1674.47 1135.84 1672.43 1135.62L1671.11 1135.49C1674.76 1132.42 1679.71 1128.47 1680.98 1123.88Z"/>
	<path fill="#C79841" transform="matrix(1.04835 0 0 1.04797 0 -6.10352e-05)" d="M1779.15 1168.5C1782.86 1168.42 1785.85 1170.12 1788.75 1172.26C1795.99 1177.61 1814.54 1194.06 1815.29 1203.05C1815.44 1204.9 1814.51 1205.34 1813.37 1206.66C1803.17 1202.51 1803.88 1190.5 1797.74 1183.9C1793.98 1179.86 1787.52 1177.09 1782.92 1173.97C1780.36 1172.23 1779.68 1171.55 1779.15 1168.5Z"/>
	<path fill="#744F28" transform="matrix(1.04835 0 0 1.04797 0 -6.10352e-05)" d="M1863.97 1090.16C1866.77 1090.38 1869.78 1089.99 1871.84 1092.2C1877.66 1098.41 1882.47 1105.81 1888.26 1112.15C1890.57 1114.68 1894.05 1116.16 1896.12 1118.66C1897.15 1119.9 1897.68 1121.15 1897.66 1122.77L1893.76 1123.16C1916.85 1136.62 1938.07 1152.7 1960.4 1167.3C1987.3 1184.88 2042.46 1214.85 2072.64 1223.93C2081.73 1226.67 2092.56 1227.75 2102.02 1228.11C2112.51 1228.5 2141.35 1224.25 2148.11 1231.5C2147.91 1233.06 2147.72 1234.01 2146.9 1235.35C2149.76 1237.09 2154.14 1235.09 2157.7 1236C2154.31 1238.5 2133.92 1247.59 2129.48 1248.77L2130.43 1246C2125.18 1245.75 2119.24 1251.2 2115.52 1254.59C2106.03 1263.22 2094.72 1276.88 2081.52 1278.98L2080.77 1279.08C2069.98 1280.52 2058.65 1281.19 2048.98 1275.48C2028.31 1263.29 2013.84 1243.13 1995.64 1227.84C1980.48 1215.1 1962.98 1204.79 1948.41 1191.47C1940.41 1184.17 1934.18 1174.78 1925.6 1168.15C1910.82 1156.71 1894.52 1147.72 1878.29 1138.56C1869.35 1133.52 1859.23 1128.44 1851.28 1121.92C1847.2 1118.56 1846.22 1114.14 1845.9 1109.04C1845.89 1108.77 1845.89 1108.49 1845.88 1108.21L1842 1108C1847.07 1105.43 1851.43 1101.31 1855.02 1096.94C1858.59 1095.17 1861.28 1093.12 1863.97 1090.16Z"/>
	<path fill="#DDAB4A" transform="matrix(1.04835 0 0 1.04797 0 -6.10352e-05)" d="M1863.97 1090.16C1866.77 1090.38 1869.78 1089.99 1871.84 1092.2C1877.66 1098.41 1882.47 1105.81 1888.26 1112.15C1890.57 1114.68 1894.05 1116.16 1896.12 1118.66C1897.15 1119.9 1897.68 1121.15 1897.66 1122.77L1893.76 1123.16C1879.98 1112.98 1863.83 1107.65 1846.85 1106.94C1849 1105.43 1851.32 1103.93 1853.1 1101.97C1854.97 1099.91 1855.13 1099.7 1855.02 1096.94C1858.59 1095.17 1861.28 1093.12 1863.97 1090.16Z"/>
	<path fill="#C79841" transform="matrix(1.04835 0 0 1.04797 0 -6.10352e-05)" d="M1740.6 1113.98C1744.63 1114.04 1754.77 1113.3 1757.85 1116.12C1757.61 1117.44 1757.33 1118.72 1757 1120.02C1768.76 1140.01 1795.44 1156.99 1812.45 1172.48C1825.58 1184.42 1837.79 1197.5 1849.82 1210.54C1860.42 1222.03 1876.1 1237.33 1883.2 1251.05C1885.26 1255.03 1883.13 1260.66 1885.11 1263.96C1886.81 1266.81 1891.26 1269.34 1894.42 1270.12C1897.21 1270.81 1900.35 1270.84 1902.9 1272.26C1909.36 1275.84 1935.08 1299.1 1938.9 1305.05C1939.42 1305.87 1939.9 1306.69 1940.36 1307.54C1954.96 1310.68 1970.17 1314.36 1985.19 1314.28C1991.98 1314.25 1999.55 1311.47 2006.11 1312.5L2006.28 1313.73L2003.55 1315.86C1998.71 1319.93 1962.22 1319.69 1953.65 1320.06C1944.95 1317.55 1929.71 1319.65 1919.92 1319.16C1909.3 1318.64 1898.7 1317.38 1888.05 1316.8C1892.64 1316.19 1897.69 1315.34 1901.92 1313.41C1893.29 1306.2 1879.59 1304.56 1868.84 1302.04C1876.52 1301.8 1889.99 1304.34 1896.55 1300.41C1896.89 1298.12 1896.63 1297.01 1895.22 1295.1C1888.72 1286.28 1875.5 1282.9 1866.84 1276.69C1858.59 1270.76 1852.37 1261.69 1843.72 1256.33C1839.84 1253.92 1835.64 1253.3 1831.23 1252.49C1830.73 1248.41 1827.44 1244.21 1827.34 1240.39C1827.28 1238.13 1829.27 1237.19 1830.82 1235.83C1831.31 1231.92 1828.77 1230.16 1827.77 1226.57C1827.11 1224.23 1827.96 1222.91 1829.01 1220.88C1830.98 1220.28 1831.88 1220.18 1833.79 1221.1C1838.9 1223.58 1843.41 1227.33 1845.21 1232.82C1845.27 1231.01 1845.46 1228.84 1844.7 1227.15C1839.28 1215.15 1793.47 1172.5 1781.52 1161.99C1775.3 1156.52 1756.32 1141.84 1753.07 1135.42C1750.96 1131.23 1750.79 1125.46 1752.35 1121.1C1753.75 1119.79 1754.77 1118.67 1755.83 1117.04C1752.76 1114.68 1745.45 1115.66 1741.23 1114.21C1741.02 1114.14 1740.81 1114.06 1740.6 1113.98Z"/>
	<path fill="#89612E" transform="matrix(1.04835 0 0 1.04797 0 -6.10352e-05)" d="M1842 1108L1845.88 1108.21C1845.89 1108.49 1845.89 1108.77 1845.9 1109.04C1846.22 1114.14 1847.2 1118.56 1851.28 1121.92C1859.23 1128.44 1869.35 1133.52 1878.29 1138.56C1894.52 1147.72 1910.82 1156.71 1925.6 1168.15C1934.18 1174.78 1940.41 1184.17 1948.41 1191.47C1962.98 1204.79 1980.48 1215.1 1995.64 1227.84C2013.84 1243.13 2028.31 1263.29 2048.98 1275.48C2058.65 1281.19 2069.98 1280.52 2080.77 1279.08L2081.52 1278.98C2067.25 1292.9 2050.03 1292.69 2031.17 1293.14C2031.02 1292.74 2030.92 1292.33 2030.71 1291.96C2028.65 1288.21 2009.16 1272.88 2004.31 1268.17C1990.88 1255.13 1978.05 1241.47 1964.69 1228.36C1951.38 1215.29 1937.53 1202.76 1924.02 1189.9C1898.22 1165.34 1871.02 1135.62 1837.67 1121.27C1837.86 1121.11 1838.05 1120.94 1838.24 1120.78C1841.41 1117.94 1843.23 1115.43 1843.47 1111.12C1837.95 1111.22 1830.66 1112.34 1825.6 1110.03C1830.91 1109.87 1837.1 1110.17 1842 1108Z"/>
	<path fill="#C79841" transform="matrix(1.04835 0 0 1.04797 0 -6.10352e-05)" d="M1425.92 1129.81C1426.74 1129.08 1427.58 1128.38 1428.41 1127.66C1429.27 1126.91 1430.1 1126.18 1431.02 1125.5C1453.08 1109.19 1519.37 1099.61 1547.29 1103.88C1550.26 1104.82 1553.39 1106.1 1556.46 1106.58C1544.38 1106.93 1514.91 1104.96 1506.49 1113.67C1504.9 1115.33 1504.19 1117.45 1504.5 1119.73C1506.25 1132.82 1562.06 1177.39 1575.14 1189.82C1615.62 1228.3 1655.55 1269.41 1692.32 1311.49C1703.03 1323.75 1712.14 1337.4 1722.79 1349.61C1728.04 1355.64 1740.75 1363.02 1742.56 1370.79C1754.68 1371.16 1766.61 1370.07 1778.68 1370.14C1778.67 1371.71 1778.35 1372.36 1777.52 1373.68C1777.23 1373.97 1776.72 1374.53 1776.34 1374.78C1771.86 1377.75 1761.94 1379.17 1756.56 1380.56C1747.48 1382.91 1737.73 1383.85 1728.37 1384.41C1685.39 1386.99 1660.34 1368.84 1621.03 1360.04L1620.31 1358.6C1616.36 1357.15 1611.97 1357.67 1607.81 1357.76C1610.02 1356.56 1612.46 1355.4 1614.51 1353.95C1616.53 1352.52 1617.04 1351.8 1617.45 1349.39C1611.75 1340.49 1577.04 1317 1566.43 1307.21C1553.63 1295.41 1541.7 1282.69 1530.74 1269.16C1523.52 1260.15 1516.5 1248.34 1507.95 1240.74C1506.4 1234.38 1502.16 1230.48 1497.66 1226.06L1496.65 1226.06C1494.03 1213.23 1456.45 1165.29 1446.58 1154.06C1440.93 1147.63 1434.92 1141.67 1428.17 1136.39L1426.52 1135.56L1425.92 1129.81Z"/>
	<path fill="#DDAB4A" transform="matrix(1.04835 0 0 1.04797 0 -6.10352e-05)" d="M1497.66 1226.06L1497.84 1224.97C1499.17 1216.12 1490.36 1208.28 1493.1 1203.82C1499.48 1204.37 1508.16 1216.62 1512.25 1221.45C1538.15 1251.85 1565.26 1281.19 1593.52 1309.41C1603.45 1319.5 1615.47 1327.48 1624.71 1338.27C1626.31 1340.14 1627.57 1341.75 1628.21 1344.18L1627.11 1345.1C1619.4 1344.39 1612.09 1338.25 1605.91 1333.9C1583.31 1317.99 1564.25 1301.2 1546.58 1279.96C1538.93 1270.77 1519.46 1243.12 1507.95 1240.74C1506.4 1234.38 1502.16 1230.48 1497.66 1226.06Z"/>
	<path fill="#A97E38" transform="matrix(1.04835 0 0 1.04797 0 -6.10352e-05)" d="M1584.21 1225.46C1584.9 1225.39 1585.59 1225.32 1586.27 1225.3C1606.6 1224.69 1685.52 1326.38 1703.45 1346.24C1710.35 1353.89 1718.16 1359.49 1725.51 1366.45C1727.76 1368.57 1728.77 1369.31 1728.88 1372.51C1696.95 1358.61 1682.59 1328.64 1660.7 1303.91C1639.72 1280.21 1607.9 1245.59 1584.21 1225.46Z"/>
	<path fill="#A97E38" transform="matrix(1.04835 0 0 1.04797 0 -6.10352e-05)" d="M1547.29 1103.88C1566.96 1103.5 1595.17 1108.32 1612.27 1118.77L1612.87 1119.91L1612.33 1122.34C1605.73 1121.27 1599.5 1117.73 1593.01 1115.9C1585.08 1113.67 1557.16 1108.23 1550.19 1113.81C1548.83 1114.9 1548.79 1115.78 1548.21 1117.35C1564.71 1142.02 1592.24 1160.7 1613.19 1181.5C1646.77 1214.83 1678.5 1250.03 1711.09 1284.32C1730.6 1304.85 1751.45 1324.24 1770.24 1345.42C1772.87 1348.4 1777.83 1353.13 1778.35 1357.18C1804.91 1356.3 1804.66 1359.41 1828.18 1345.03C1832.06 1342.66 1851.56 1329.12 1853.55 1330.27L1852.95 1334.13C1848.18 1342.99 1790.58 1370.01 1779.22 1373.27C1778.66 1373.43 1778.09 1373.57 1777.52 1373.68C1778.35 1372.36 1778.67 1371.71 1778.68 1370.14C1766.61 1370.07 1754.68 1371.16 1742.56 1370.79C1740.75 1363.02 1728.04 1355.64 1722.79 1349.61C1712.14 1337.4 1703.03 1323.75 1692.32 1311.49C1655.55 1269.41 1615.62 1228.3 1575.14 1189.82C1562.06 1177.39 1506.25 1132.82 1504.5 1119.73C1504.19 1117.45 1504.9 1115.33 1506.49 1113.67C1514.91 1104.96 1544.38 1106.93 1556.46 1106.58C1553.39 1106.1 1550.26 1104.82 1547.29 1103.88Z"/>
	<defs>
		<linearGradient id="gradient_4" gradientUnits="userSpaceOnUse" x1="2583.5366" y1="537.79291" x2="2374.2375" y2="916.48053">
			<stop offset="0" stop-color="#452A1C"/>
			<stop offset="1" stop-color="#F2BD4F"/>
		</linearGradient>
	</defs>
	<path fill="url(#gradient_4)" transform="matrix(1.04835 0 0 1.04797 0 -6.10352e-05)" d="M2560.72 408.922C2560.98 408.756 2561.24 408.596 2561.49 408.425C2575.39 399.04 2593.2 364.501 2611.45 367.861C2616.24 368.744 2621.03 371.386 2623.72 375.519C2631.1 386.865 2637.52 398.832 2644.88 410.176C2651.35 420.131 2659.17 429.784 2664.46 440.401C2668.86 449.227 2671.35 465.975 2675.49 472.17L2675.48 473.649C2682.07 488.979 2672.28 504.807 2671.04 518.905C2670.24 519.601 2669.39 520.468 2668.47 521.026L2667.51 521.984L2667.34 522.744C2666.47 526.82 2667.13 531.967 2665.25 535.602L2662.92 536.99L2662.61 537.743C2661.91 539.442 2661.35 540.933 2661.04 542.745C2660.27 547.304 2655.21 558.426 2651.55 561.025C2651.03 561.388 2650.51 561.738 2649.97 562.077C2650.02 562.298 2650.07 562.518 2650.12 562.739C2650.56 564.832 2650.66 566.626 2650.66 568.761C2650.69 577.173 2659.44 585.698 2662.07 594.054C2662.85 596.543 2663.79 598.966 2665.02 601.265L2664.38 603.165C2668.82 610.6 2668.02 657.251 2665.96 667.246C2665.69 668.545 2665.15 669.85 2664.49 670.997C2665.32 674.119 2661.38 686.011 2659.62 689.244C2659.47 689.504 2659.3 689.744 2659.14 689.993C2659.4 690.721 2660.47 692.895 2660.42 693.537C2660.09 697.683 2656.44 705.299 2654.58 709.324C2642.7 735.135 2623.38 755.551 2602.73 774.567C2599.08 777.93 2595.44 782.875 2590.82 784.834L2590.86 787.332C2584.84 793.344 2572.85 808.809 2564.58 810.919L2563.03 810.279L2562.52 805.532C2561.04 804.435 2560.69 804.059 2558.73 804.274C2552.54 804.955 2544.87 809.198 2539.1 811.587C2523.2 818.172 2496 829.775 2478.72 829.128C2470.98 833.129 2418.8 834.042 2406.42 834.713C2365.28 836.945 2297.83 842.889 2261.8 860.979L2259.84 860.41C2259.47 857.373 2258.92 854.641 2257.97 851.727L2257.68 850.871C2258 850.522 2258.34 850.192 2258.65 849.824C2259.92 848.269 2265.1 819.435 2264.77 817.114C2274.75 792.048 2322.51 728.996 2342.7 712.254C2351.7 704.783 2371.22 695.028 2377.68 685.979C2379.84 684.646 2381.67 683.101 2383.58 681.431C2398.22 668.597 2403.65 657.562 2404.95 638.128C2405.57 637.734 2405.83 637.6 2406.43 637.066C2408.39 635.318 2408.41 634.463 2408.52 631.916C2408.9 631.268 2420.44 583.988 2420.73 581.471C2420.93 579.718 2420.59 577.888 2420.29 576.163C2423.61 567.167 2423.54 548.274 2428.67 541.397C2432.26 536.572 2432.82 526.247 2434.82 520.267C2436.99 513.851 2439.71 507.634 2442.95 501.687C2454.25 480.671 2471.11 465.042 2492.15 454.033C2501.97 448.892 2511.68 444.463 2520.7 437.911C2531.19 430.464 2555.12 419.817 2560.72 408.922Z"/>
	<defs>
		<linearGradient id="gradient_5" gradientUnits="userSpaceOnUse" x1="2571.6731" y1="506.6879" x2="2424.0603" y2="602.17535">
			<stop offset="0" stop-color="#9B7235"/>
			<stop offset="1" stop-color="#D2A145"/>
		</linearGradient>
	</defs>
	<path fill="url(#gradient_5)" transform="matrix(1.04835 0 0 1.04797 0 -6.10352e-05)" d="M2560.72 408.922C2560.98 408.756 2561.24 408.596 2561.49 408.425C2575.39 399.04 2593.2 364.501 2611.45 367.861C2616.24 368.744 2621.03 371.386 2623.72 375.519C2631.1 386.865 2637.52 398.832 2644.88 410.176C2651.35 420.131 2659.17 429.784 2664.46 440.401C2668.86 449.227 2671.35 465.975 2675.49 472.17L2675.48 473.649C2682.07 488.979 2672.28 504.807 2671.04 518.905C2670.24 519.601 2669.39 520.468 2668.47 521.026L2667.51 521.984L2667.34 522.744C2666.47 526.82 2667.13 531.967 2665.25 535.602L2662.92 536.99L2662.61 537.743C2661.91 539.442 2661.35 540.933 2661.04 542.745C2660.27 547.304 2655.21 558.426 2651.55 561.025C2651.03 561.388 2650.51 561.738 2649.97 562.077C2647.94 562.717 2646.11 563.212 2643.99 563.509C2636 564.632 2626.41 576.118 2618.81 580.043C2616.73 585.155 2610.27 587.684 2605.42 589.749C2604.21 590.262 2603.03 590.671 2601.78 591.076C2598.67 594.206 2596.17 596.169 2591.74 597.094C2587.94 601.991 2556.21 610.161 2549.33 611.021C2549.13 611.045 2548.93 611.065 2548.74 611.087C2539.97 616.128 2521.22 618.975 2510.92 621.579C2489.58 626.97 2466.65 632.067 2446.07 639.742C2433.65 644.371 2419.67 651.955 2408.25 658.78C2407.33 657.675 2407.21 657.92 2407.23 656.382C2407.32 650.942 2406.76 643.292 2404.95 638.128C2405.57 637.734 2405.83 637.6 2406.43 637.066C2408.39 635.318 2408.41 634.463 2408.52 631.916C2408.9 631.268 2420.44 583.988 2420.73 581.471C2420.93 579.718 2420.59 577.888 2420.29 576.163C2423.61 567.167 2423.54 548.274 2428.67 541.397C2432.26 536.572 2432.82 526.247 2434.82 520.267C2436.99 513.851 2439.71 507.634 2442.95 501.687C2454.25 480.671 2471.11 465.042 2492.15 454.033C2501.97 448.892 2511.68 444.463 2520.7 437.911C2531.19 430.464 2555.12 419.817 2560.72 408.922Z"/>
	<defs>
		<linearGradient id="gradient_6" gradientUnits="userSpaceOnUse" x1="2659.4839" y1="417.79031" x2="2575.9255" y2="500.72067">
			<stop offset="0" stop-color="#603F23"/>
			<stop offset="1" stop-color="#805A2C"/>
		</linearGradient>
	</defs>
	<path fill="url(#gradient_6)" transform="matrix(1.04835 0 0 1.04797 0 -6.10352e-05)" d="M2560.72 408.922C2560.98 408.756 2561.24 408.596 2561.49 408.425C2575.39 399.04 2593.2 364.501 2611.45 367.861C2616.24 368.744 2621.03 371.386 2623.72 375.519C2631.1 386.865 2637.52 398.832 2644.88 410.176C2651.35 420.131 2659.17 429.784 2664.46 440.401C2668.86 449.227 2671.35 465.975 2675.49 472.17L2675.48 473.649C2682.07 488.979 2672.28 504.807 2671.04 518.905C2670.24 519.601 2669.39 520.468 2668.47 521.026L2667.51 521.984L2667.34 522.744C2666.47 526.82 2667.13 531.967 2665.25 535.602L2662.92 536.99C2663.26 535.235 2663.75 533.34 2663.59 531.548C2663.41 529.434 2663.07 529.402 2661.49 528.171C2656.23 527.685 2650.69 531.31 2645.39 532.285C2645.13 532.333 2644.86 532.375 2644.6 532.419C2641.16 528.601 2632.59 524.445 2627.78 522.803C2621.63 525.316 2614.66 529.349 2608.18 530.533C2605.49 531.023 2604.51 530.694 2602.24 529.333C2599.56 523.378 2603.94 514.637 2605.56 508.593C2602.23 499.724 2593.31 493.425 2585.88 488.064C2586.28 486.541 2586.08 484.503 2585.93 482.919C2585.18 475.536 2576.07 451.769 2569.72 447.165C2567.75 445.737 2565.36 446.691 2563.12 447.015C2552.85 438.515 2568.99 420.231 2567.36 410.927C2565.2 408.758 2563.71 409.189 2560.72 408.922Z"/>
	<path fill="#89612E" transform="matrix(1.04835 0 0 1.04797 0 -6.10352e-05)" d="M2618.57 505.848C2625.29 507.105 2646.87 517.139 2652.74 520.845C2657.7 517.751 2661.78 508.493 2666.69 507.116C2669.76 510.493 2668.62 516.772 2668.47 521.026L2667.51 521.984C2662.59 521.353 2652.84 526.886 2647.49 528.338C2644.68 524.233 2624.04 510.459 2618.57 505.848Z"/>
	<path fill="#89612E" transform="matrix(1.04835 0 0 1.04797 0 -6.10352e-05)" d="M2520.7 437.911C2531.19 430.464 2555.12 419.817 2560.72 408.922C2563.71 409.189 2565.2 408.758 2567.36 410.927C2568.99 420.231 2552.85 438.515 2563.12 447.015C2565.36 446.691 2567.75 445.737 2569.72 447.165C2576.07 451.769 2585.18 475.536 2585.93 482.919C2586.08 484.503 2586.28 486.541 2585.88 488.064C2593.31 493.425 2602.23 499.724 2605.56 508.593C2603.94 514.637 2599.56 523.378 2602.24 529.333C2604.51 530.694 2605.49 531.023 2608.18 530.533C2614.66 529.349 2621.63 525.316 2627.78 522.803C2632.59 524.445 2641.16 528.601 2644.6 532.419C2644.86 532.375 2645.13 532.333 2645.39 532.285C2650.69 531.31 2656.23 527.685 2661.49 528.171C2663.07 529.402 2663.41 529.434 2663.59 531.548C2663.75 533.34 2663.26 535.235 2662.92 536.99L2662.61 537.743C2661.91 539.442 2661.35 540.933 2661.04 542.745C2660.27 547.304 2655.21 558.426 2651.55 561.025C2651.03 561.388 2650.51 561.738 2649.97 562.077C2647.94 562.717 2646.11 563.212 2643.99 563.509C2636 564.632 2626.41 576.118 2618.81 580.043C2622.06 576.601 2624.35 573.656 2625.22 568.902C2618.52 567 2609.72 566.943 2602.66 565.994C2594.65 561.264 2588.62 555.007 2579.82 550.805C2580.19 549.398 2580.55 547.974 2580.74 546.531C2581.07 544.061 2580.97 541.517 2579.71 539.312C2575.6 532.124 2557.25 516.13 2550.04 506.502C2541.24 494.735 2547.5 492.002 2549.23 479.031C2550.07 472.826 2549.7 466.662 2545.77 461.533L2544.83 462.597C2544.61 466.077 2544.38 468.648 2542.66 471.8C2542.53 472.036 2542.39 472.266 2542.26 472.499C2541.25 467.271 2538.68 464.274 2534.71 461.009C2531.44 460.662 2528.06 460.927 2525.45 458.741C2517.94 452.448 2528.26 446.6 2527.75 440.045C2525.42 438.17 2523.63 438.121 2520.7 437.911Z"/>
	<path fill="#DDAB4A" transform="matrix(1.04835 0 0 1.04797 0 -6.10352e-05)" d="M2420.29 576.163C2425.67 571.61 2427.36 570.166 2428.78 563.073L2430 562.206C2432.51 563.823 2434.13 565.269 2434.86 568.273C2437.36 578.534 2433.2 590.132 2435.38 600.846C2437.17 609.675 2448.17 623.891 2445.69 630.869C2443.54 633.456 2441.56 634.648 2438.63 636.214C2437.61 636.757 2436.6 637.326 2435.59 637.875C2430.72 642.929 2416.49 650.696 2409.44 650.934C2404.97 645.332 2411.65 638.338 2408.52 631.916C2408.9 631.268 2420.44 583.988 2420.73 581.471C2420.93 579.718 2420.59 577.888 2420.29 576.163Z"/>
	<path fill="#A97E38" transform="matrix(1.04835 0 0 1.04797 0 -6.10352e-05)" d="M2435.59 637.875C2450.1 636.386 2464.49 629.469 2478.32 624.92C2488.25 621.649 2498.46 619.445 2508.67 617.247C2494.17 623.087 2478.14 626.524 2463.32 631.867C2479.47 629.478 2538.87 608.475 2548.74 611.087C2539.97 616.128 2521.22 618.975 2510.92 621.579C2489.58 626.97 2466.65 632.067 2446.07 639.742C2433.65 644.371 2419.67 651.955 2408.25 658.78C2407.33 657.675 2407.21 657.92 2407.23 656.382C2407.32 650.942 2406.76 643.292 2404.95 638.128C2405.57 637.734 2405.83 637.6 2406.43 637.066C2408.39 635.318 2408.41 634.463 2408.52 631.916C2411.65 638.338 2404.97 645.332 2409.44 650.934C2416.49 650.696 2430.72 642.929 2435.59 637.875Z"/>
	<path fill="#A97E38" transform="matrix(1.04835 0 0 1.04797 0 -6.10352e-05)" d="M2591.74 597.094L2590.38 596.709L2589.94 595.623C2595.97 591.83 2603.62 587.735 2608.04 582.118C2608.11 579.17 2603.17 575.018 2601.34 572.47C2599.93 570.499 2598.75 568.657 2599.12 566.238L2602.66 565.994C2609.72 566.943 2618.52 567 2625.22 568.902C2624.35 573.656 2622.06 576.601 2618.81 580.043C2616.73 585.155 2610.27 587.684 2605.42 589.749C2604.21 590.262 2603.03 590.671 2601.78 591.076C2598.67 594.206 2596.17 596.169 2591.74 597.094Z"/>
	<path fill="#C79841" transform="matrix(1.04835 0 0 1.04797 0 -6.10352e-05)" d="M2517.31 596.5C2519.35 596.44 2521.93 596.205 2523.92 596.686C2527.35 597.516 2532.26 602.29 2534.19 605.183L2532.34 606.98C2530.33 608.196 2528.01 608.291 2525.76 607.763C2522.64 607.031 2518.56 605.042 2517.12 601.966C2516.14 599.853 2516.6 598.579 2517.31 596.5Z"/>
	<path fill="#A97E38" transform="matrix(1.04835 0 0 1.04797 0 -6.10352e-05)" d="M2264.77 817.114C2265.46 818.414 2266.24 819.857 2266.38 821.35C2266.64 824.199 2263.31 848.985 2262.43 852.64C2262.1 854.014 2261.49 855.328 2260.84 856.577C2268.61 853.32 2276.18 849.536 2284.13 846.735C2316.92 835.173 2350.19 832.491 2384.45 829.914C2390.24 829.478 2401.77 826.602 2406.85 828.74C2409.23 829.742 2411.46 831.716 2414.19 830.531C2415.77 829.843 2417.26 828.751 2418.68 827.781C2428.16 827.625 2437.85 828.071 2447.28 827.386C2453.33 826.947 2466.33 823.686 2471.49 825.805C2470.66 827.344 2471.27 826.809 2469.69 827.441L2470.47 827.469L2470.46 828.309C2473.18 828.795 2476.14 828.454 2478.72 829.128C2470.98 833.129 2418.8 834.042 2406.42 834.713C2365.28 836.945 2297.83 842.889 2261.8 860.979L2259.84 860.41C2259.47 857.373 2258.92 854.641 2257.97 851.727L2257.68 850.871C2258 850.522 2258.34 850.192 2258.65 849.824C2259.92 848.269 2265.1 819.435 2264.77 817.114Z"/>
	<path fill="#744F28" transform="matrix(1.04835 0 0 1.04797 0 -6.10352e-05)" d="M2618.81 580.043C2626.41 576.118 2636 564.632 2643.99 563.509C2646.11 563.212 2647.94 562.717 2649.97 562.077C2650.02 562.298 2650.07 562.518 2650.12 562.739C2650.56 564.832 2650.66 566.626 2650.66 568.761C2650.69 577.173 2659.44 585.698 2662.07 594.054C2662.85 596.543 2663.79 598.966 2665.02 601.265L2664.38 603.165C2668.82 610.6 2668.02 657.251 2665.96 667.246C2665.69 668.545 2665.15 669.85 2664.49 670.997C2665.32 674.119 2661.38 686.011 2659.62 689.244C2659.47 689.504 2659.3 689.744 2659.14 689.993C2657.07 690.554 2656.79 692.628 2654.51 693.338L2653.37 691.927C2653.78 691.189 2654.15 690.538 2654.37 689.718C2657.08 679.939 2655.73 670.325 2656.48 660.519C2656.74 657.188 2657.93 653.989 2658.26 650.67C2660.97 623.563 2658.26 611.601 2647.87 587.329C2645.12 580.908 2643.09 574.125 2640.04 567.879C2639.39 569.578 2638.54 570.441 2637.25 571.629C2629.92 578.391 2612.17 591.408 2601.78 591.076C2603.03 590.671 2604.21 590.262 2605.42 589.749C2610.27 587.684 2616.73 585.155 2618.81 580.043Z"/>
	<path fill="#89612E" transform="matrix(1.04835 0 0 1.04797 0 -6.10352e-05)" d="M2664.49 670.997C2662.69 671.768 2660.97 672.601 2659.23 673.495C2658.84 672.539 2658.76 672.442 2658.55 671.261C2657.14 663.365 2660.6 654.785 2661.3 646.928C2662.15 637.337 2661.63 627.396 2660.69 617.831C2660.33 614.121 2658.14 603.402 2659.69 601.08L2664.38 603.165C2668.82 610.6 2668.02 657.251 2665.96 667.246C2665.69 668.545 2665.15 669.85 2664.49 670.997Z"/>
	<path fill="#A97E38" transform="matrix(1.04835 0 0 1.04797 0 -6.10352e-05)" d="M2478.71 686.499C2481.32 686.4 2483.97 687.46 2486.15 688.831C2489.12 690.691 2492.16 693.278 2492.75 696.924C2493.06 698.902 2492.18 699.348 2491.07 700.867C2488.33 699.824 2485.09 696.383 2483.1 694.243C2480.7 691.669 2478.61 690.128 2478.71 686.499Z"/>
	<path fill="#744F28" fill-opacity="0.98431373" transform="matrix(1.04835 0 0 1.04797 0 -6.10352e-05)" d="M1494.66 1225.83L1496.65 1226.06L1497.66 1226.06C1502.16 1230.48 1506.4 1234.38 1507.95 1240.74C1516.5 1248.34 1523.52 1260.15 1530.74 1269.16C1541.7 1282.69 1553.63 1295.41 1566.43 1307.21C1577.04 1317 1611.75 1340.49 1617.45 1349.39C1617.04 1351.8 1616.53 1352.52 1614.51 1353.95C1612.46 1355.4 1610.02 1356.56 1607.81 1357.76C1604.07 1357.35 1599.54 1358.03 1595.61 1357.88C1600.89 1355.86 1605.9 1353.76 1609.8 1349.53C1608.04 1344.17 1570.63 1315.86 1563.68 1309.39C1537.22 1284.74 1516.45 1254.51 1494.66 1225.83Z"/>
	<path fill="white" fill-opacity="0.015686275" transform="matrix(1.04835 0 0 1.04797 0 -6.10352e-05)" d="M320.303 405.319C323.515 410.072 320.693 417.77 323.954 423.374C326.408 427.589 330.015 433.677 328.816 438.721C327.702 443.405 323.489 443.501 322.217 447.258C320.884 451.191 322.488 456.194 320.845 459.922C318.458 449.357 320.01 418.047 320.303 405.319Z"/>
</svg>
