<?xml version="1.0" encoding="utf-8" ?>
<svg xmlns="http://www.w3.org/2000/svg" xmlns:xlink="http://www.w3.org/1999/xlink" width="295" height="295">
	<g>
		<path fill="#EE0AFC" d="M118.934 109.058C118.935 107.469 118.998 105.888 119.391 104.339C120.323 100.667 127.063 88.9964 130.224 87.2871C131.74 86.4675 137.647 88.4372 139.382 89.0349C141.177 89.6534 142.812 90.5383 144.284 91.7411C148.144 94.8948 153.299 102.257 155.469 106.724C156.107 107.779 156.629 108.929 156.841 110.152C157.365 113.177 157.482 116.345 157.789 119.406L159.4 134.643C159.844 139.182 160.169 143.742 160.671 148.273C161.062 151.791 161.68 155.306 161.932 158.834C162.053 160.527 162.302 162.781 161.877 164.427C160.038 171.562 152.991 178.565 149.296 185.021C148.903 185.922 148.293 186.806 147.797 187.659C144.661 184.091 142.732 179.828 140.43 175.714C138.768 172.742 136.886 169.772 135.587 166.62C134.195 163.239 133.562 159.126 132.524 155.575C130.909 150.048 128.512 144.424 127.508 138.783C126.497 135.839 125.921 132.693 125 129.71C123.626 125.26 119.067 113.247 118.934 109.058Z"/>
		<path fill="#FDD9FE" d="M118.934 109.058C118.935 107.469 118.998 105.888 119.391 104.339C120.323 100.667 127.063 88.9964 130.224 87.2871C131.74 86.4675 137.647 88.4372 139.382 89.0349C141.177 89.6534 142.812 90.5383 144.284 91.7411C148.144 94.8948 153.299 102.257 155.469 106.724C154.807 107.664 154.228 108.714 153.511 109.605C151.581 112.005 149.335 114.072 147.877 116.821C147.747 121.079 149.207 125.078 148.936 129.438C148.138 130.392 147.16 131.794 145.825 131.934C144.752 132.047 143.467 131.488 142.436 131.245C139.677 130.596 136.524 132.272 133.979 133.229C132.684 132.222 131.619 131.134 130.609 129.84C133.319 127.473 146.143 119.587 146.213 116.647C146.283 113.685 143.267 110.415 141.203 108.503C140.222 107.594 139.285 106.847 137.871 106.929C136.497 107.009 135.176 107.794 133.975 108.411L133.99 112.056C130.758 112.022 121.636 110.472 118.934 109.058Z"/>
		<path fill="#510FA7" d="M127.508 138.783C130.403 140.934 132.712 143.733 135.206 146.313C139.696 150.957 145.318 156.14 150.993 159.255C150.999 164.748 151.239 170.366 150.756 175.837C150.483 178.925 149.3 181.912 149.296 185.021C148.903 185.922 148.293 186.806 147.797 187.659C144.661 184.091 142.732 179.828 140.43 175.714C138.768 172.742 136.886 169.772 135.587 166.62C134.195 163.239 133.562 159.126 132.524 155.575C130.909 150.048 128.512 144.424 127.508 138.783Z"/>
	</g>
	<g/>
</svg>
